<svg width="241" height="175" viewBox="0 0 241 175" fill="none" xmlns="http://www.w3.org/2000/svg">
<path d="M230.269 0C234.878 0 238.768 3.07283 240.007 7.28125H240.5V153.001C240.5 165.151 230.65 175.001 218.5 175.001H22.5C10.3499 175.001 0.500239 165.151 0.5 153.001V29.2812C0.500002 17.131 10.3497 7.28125 22.5 7.28125H192.635C196.054 2.71994 201.437 0.000140492 207.19 0H230.269Z" fill="#F7F3ED"/>
<path d="M31.537 29.77H26.392V43H24.502V29.77H19.357V28.09H31.537V29.77ZM31.6673 43V32.038H37.3373C37.9953 32.038 38.5413 32.171 38.9753 32.437C39.4093 32.689 39.7313 33.018 39.9413 33.424C40.1653 33.83 40.2773 34.264 40.2773 34.726C40.2773 35.314 40.1373 35.846 39.8573 36.322C39.5773 36.784 39.1713 37.134 38.6393 37.372C39.2693 37.554 39.7803 37.883 40.1723 38.359C40.5643 38.821 40.7603 39.395 40.7603 40.081C40.7603 40.697 40.6133 41.222 40.3193 41.656C40.0253 42.09 39.6123 42.426 39.0803 42.664C38.5483 42.888 37.9323 43 37.2323 43H31.6673ZM33.4313 41.698H37.1903C37.5263 41.698 37.8273 41.614 38.0933 41.446C38.3733 41.278 38.5903 41.054 38.7443 40.774C38.8983 40.494 38.9753 40.2 38.9753 39.892C38.9753 39.556 38.8983 39.255 38.7443 38.989C38.6043 38.709 38.4013 38.492 38.1353 38.338C37.8833 38.17 37.5893 38.086 37.2533 38.086H33.4313V41.698ZM33.4313 36.868H36.8543C37.1903 36.868 37.4843 36.784 37.7363 36.616C37.9883 36.434 38.1843 36.203 38.3243 35.923C38.4643 35.643 38.5343 35.349 38.5343 35.041C38.5343 34.579 38.3803 34.18 38.0723 33.844C37.7783 33.508 37.3933 33.34 36.9173 33.34H33.4313V36.868ZM47.8991 43.21C47.0731 43.21 46.3241 43.063 45.6521 42.769C44.9801 42.461 44.3991 42.048 43.9091 41.53C43.4191 40.998 43.0411 40.389 42.7751 39.703C42.5091 39.017 42.3761 38.296 42.3761 37.54C42.3761 36.77 42.5091 36.042 42.7751 35.356C43.0411 34.67 43.4191 34.068 43.9091 33.55C44.3991 33.018 44.9801 32.605 45.6521 32.311C46.3381 32.003 47.0871 31.849 47.8991 31.849C48.7251 31.849 49.4741 32.003 50.1461 32.311C50.8181 32.605 51.3991 33.018 51.8891 33.55C52.3931 34.068 52.7781 34.67 53.0441 35.356C53.3101 36.042 53.4431 36.77 53.4431 37.54C53.4431 38.296 53.3101 39.017 53.0441 39.703C52.7781 40.389 52.4001 40.998 51.9101 41.53C51.4201 42.048 50.8321 42.461 50.1461 42.769C49.4741 43.063 48.7251 43.21 47.8991 43.21ZM44.2661 37.561C44.2661 38.317 44.4271 39.003 44.7491 39.619C45.0851 40.235 45.5261 40.725 46.0721 41.089C46.6181 41.439 47.2271 41.614 47.8991 41.614C48.5711 41.614 49.1801 41.432 49.7261 41.068C50.2861 40.704 50.7271 40.214 51.0491 39.598C51.3851 38.968 51.5531 38.275 51.5531 37.519C51.5531 36.763 51.3851 36.077 51.0491 35.461C50.7271 34.845 50.2861 34.355 49.7261 33.991C49.1801 33.627 48.5711 33.445 47.8991 33.445C47.2271 33.445 46.6181 33.634 46.0721 34.012C45.5261 34.376 45.0851 34.866 44.7491 35.482C44.4271 36.098 44.2661 36.791 44.2661 37.561ZM55.6614 43V32.059H57.5094V40.522L63.6414 32.038H65.3214V43H63.4734V34.705L57.4254 43H55.6614ZM60.5124 30.799C59.5044 30.799 58.7414 30.561 58.2234 30.085C57.7054 29.595 57.4464 28.993 57.4464 28.279H58.7484C58.7484 28.671 58.8814 29 59.1474 29.266C59.4274 29.518 59.8824 29.644 60.5124 29.644C61.1284 29.644 61.5624 29.525 61.8144 29.287C62.0664 29.035 62.2204 28.699 62.2764 28.279H63.5784C63.5784 28.993 63.3194 29.595 62.8014 30.085C62.2834 30.561 61.5204 30.799 60.5124 30.799ZM78.4367 43.21C77.6107 43.21 76.8547 43.063 76.1687 42.769C75.4967 42.461 74.9087 42.041 74.4047 41.509C73.9147 40.977 73.5297 40.368 73.2497 39.682C72.9837 38.996 72.8507 38.268 72.8507 37.498C72.8507 36.462 73.0817 35.517 73.5437 34.663C74.0057 33.809 74.6567 33.13 75.4967 32.626C76.3367 32.108 77.3097 31.849 78.4157 31.849C79.4937 31.849 80.4317 32.094 81.2297 32.584C82.0417 33.06 82.6437 33.704 83.0357 34.516L81.2297 35.083C80.9497 34.565 80.5577 34.166 80.0537 33.886C79.5497 33.592 78.9897 33.445 78.3737 33.445C77.7017 33.445 77.0857 33.62 76.5257 33.97C75.9797 34.32 75.5457 34.803 75.2237 35.419C74.9017 36.021 74.7407 36.714 74.7407 37.498C74.7407 38.268 74.9017 38.968 75.2237 39.598C75.5597 40.214 76.0007 40.704 76.5467 41.068C77.1067 41.432 77.7227 41.614 78.3947 41.614C78.8287 41.614 79.2417 41.537 79.6337 41.383C80.0397 41.229 80.3897 41.026 80.6837 40.774C80.9917 40.508 81.2017 40.221 81.3137 39.913L83.1197 40.459C82.8957 40.991 82.5527 41.467 82.0907 41.887C81.6427 42.293 81.1037 42.615 80.4737 42.853C79.8577 43.091 79.1787 43.21 78.4367 43.21ZM87.8807 43V33.676H84.1007V32.038H93.5087V33.676H89.7287V43H87.8807ZM94.504 39.829C94.504 39.129 94.7 38.527 95.092 38.023C95.498 37.505 96.051 37.106 96.751 36.826C97.451 36.546 98.263 36.406 99.187 36.406C99.677 36.406 100.195 36.448 100.741 36.532C101.287 36.602 101.77 36.714 102.19 36.868V36.07C102.19 35.23 101.938 34.572 101.434 34.096C100.93 33.606 100.216 33.361 99.292 33.361C98.69 33.361 98.109 33.473 97.549 33.697C97.003 33.907 96.422 34.215 95.806 34.621L95.134 33.319C95.848 32.829 96.562 32.465 97.276 32.227C97.99 31.975 98.732 31.849 99.502 31.849C100.902 31.849 102.008 32.241 102.82 33.025C103.632 33.795 104.038 34.873 104.038 36.259V40.9C104.038 41.124 104.08 41.292 104.164 41.404C104.262 41.502 104.416 41.558 104.626 41.572V43C104.444 43.028 104.283 43.049 104.143 43.063C104.017 43.077 103.912 43.084 103.828 43.084C103.394 43.084 103.065 42.965 102.841 42.727C102.631 42.489 102.512 42.237 102.484 41.971L102.442 41.278C101.966 41.894 101.343 42.37 100.573 42.706C99.803 43.042 99.04 43.21 98.284 43.21C97.556 43.21 96.905 43.063 96.331 42.769C95.757 42.461 95.309 42.055 94.987 41.551C94.665 41.033 94.504 40.459 94.504 39.829ZM101.644 40.606C101.812 40.41 101.945 40.214 102.043 40.018C102.141 39.808 102.19 39.633 102.19 39.493V38.128C101.756 37.96 101.301 37.834 100.825 37.75C100.349 37.652 99.88 37.603 99.418 37.603C98.48 37.603 97.717 37.792 97.129 38.17C96.555 38.534 96.268 39.038 96.268 39.682C96.268 40.032 96.359 40.375 96.541 40.711C96.737 41.033 97.017 41.299 97.381 41.509C97.759 41.719 98.221 41.824 98.767 41.824C99.341 41.824 99.887 41.712 100.405 41.488C100.923 41.25 101.336 40.956 101.644 40.606ZM112.894 43.21C111.998 43.21 111.2 42.986 110.5 42.538C109.8 42.09 109.247 41.523 108.841 40.837V47.473H106.993V32.038H108.631V34.096C109.065 33.424 109.632 32.885 110.332 32.479C111.032 32.059 111.795 31.849 112.621 31.849C113.377 31.849 114.07 32.003 114.7 32.311C115.33 32.619 115.876 33.039 116.338 33.571C116.8 34.103 117.157 34.712 117.409 35.398C117.675 36.07 117.808 36.777 117.808 37.519C117.808 38.555 117.598 39.507 117.178 40.375C116.772 41.243 116.198 41.936 115.456 42.454C114.714 42.958 113.86 43.21 112.894 43.21ZM112.327 41.614C112.873 41.614 113.363 41.502 113.797 41.278C114.245 41.04 114.623 40.732 114.931 40.354C115.253 39.962 115.498 39.521 115.666 39.031C115.834 38.541 115.918 38.037 115.918 37.519C115.918 36.973 115.82 36.455 115.624 35.965C115.442 35.475 115.176 35.041 114.826 34.663C114.49 34.285 114.091 33.991 113.629 33.781C113.181 33.557 112.691 33.445 112.159 33.445C111.823 33.445 111.473 33.508 111.109 33.634C110.759 33.76 110.423 33.942 110.101 34.18C109.779 34.404 109.506 34.663 109.282 34.957C109.058 35.251 108.911 35.566 108.841 35.902V39.031C109.051 39.507 109.331 39.941 109.681 40.333C110.031 40.725 110.437 41.04 110.899 41.278C111.361 41.502 111.837 41.614 112.327 41.614ZM122.744 43V33.676H118.964V32.038H128.372V33.676H124.592V43H122.744ZM20.47 68V57.038H26.14C26.798 57.038 27.344 57.171 27.778 57.437C28.212 57.689 28.534 58.018 28.744 58.424C28.968 58.83 29.08 59.264 29.08 59.726C29.08 60.314 28.94 60.846 28.66 61.322C28.38 61.784 27.974 62.134 27.442 62.372C28.072 62.554 28.583 62.883 28.975 63.359C29.367 63.821 29.563 64.395 29.563 65.081C29.563 65.697 29.416 66.222 29.122 66.656C28.828 67.09 28.415 67.426 27.883 67.664C27.351 67.888 26.735 68 26.035 68H20.47ZM22.234 66.698H25.993C26.329 66.698 26.63 66.614 26.896 66.446C27.176 66.278 27.393 66.054 27.547 65.774C27.701 65.494 27.778 65.2 27.778 64.892C27.778 64.556 27.701 64.255 27.547 63.989C27.407 63.709 27.204 63.492 26.938 63.338C26.686 63.17 26.392 63.086 26.056 63.086H22.234V66.698ZM22.234 61.868H25.657C25.993 61.868 26.287 61.784 26.539 61.616C26.791 61.434 26.987 61.203 27.127 60.923C27.267 60.643 27.337 60.349 27.337 60.041C27.337 59.579 27.183 59.18 26.875 58.844C26.581 58.508 26.196 58.34 25.72 58.34H22.234V61.868ZM36.7019 68.21C35.8759 68.21 35.1269 68.063 34.4549 67.769C33.7829 67.461 33.2019 67.048 32.7119 66.53C32.2219 65.998 31.8439 65.389 31.5779 64.703C31.3119 64.017 31.1789 63.296 31.1789 62.54C31.1789 61.77 31.3119 61.042 31.5779 60.356C31.8439 59.67 32.2219 59.068 32.7119 58.55C33.2019 58.018 33.7829 57.605 34.4549 57.311C35.1409 57.003 35.8899 56.849 36.7019 56.849C37.5279 56.849 38.2769 57.003 38.9489 57.311C39.6209 57.605 40.2019 58.018 40.6919 58.55C41.1959 59.068 41.5809 59.67 41.8469 60.356C42.1129 61.042 42.2459 61.77 42.2459 62.54C42.2459 63.296 42.1129 64.017 41.8469 64.703C41.5809 65.389 41.2029 65.998 40.7129 66.53C40.2229 67.048 39.6349 67.461 38.9489 67.769C38.2769 68.063 37.5279 68.21 36.7019 68.21ZM33.0689 62.561C33.0689 63.317 33.2299 64.003 33.5519 64.619C33.8879 65.235 34.3289 65.725 34.8749 66.089C35.4209 66.439 36.0299 66.614 36.7019 66.614C37.3739 66.614 37.9829 66.432 38.5289 66.068C39.0889 65.704 39.5299 65.214 39.8519 64.598C40.1879 63.968 40.3559 63.275 40.3559 62.519C40.3559 61.763 40.1879 61.077 39.8519 60.461C39.5299 59.845 39.0889 59.355 38.5289 58.991C37.9829 58.627 37.3739 58.445 36.7019 58.445C36.0299 58.445 35.4209 58.634 34.8749 59.012C34.3289 59.376 33.8879 59.866 33.5519 60.482C33.2299 61.098 33.0689 61.791 33.0689 62.561ZM49.7757 68V57.038H55.4457C56.1037 57.038 56.6497 57.171 57.0837 57.437C57.5177 57.689 57.8397 58.018 58.0497 58.424C58.2737 58.83 58.3857 59.264 58.3857 59.726C58.3857 60.314 58.2457 60.846 57.9657 61.322C57.6857 61.784 57.2797 62.134 56.7477 62.372C57.3777 62.554 57.8887 62.883 58.2807 63.359C58.6727 63.821 58.8687 64.395 58.8687 65.081C58.8687 65.697 58.7217 66.222 58.4277 66.656C58.1337 67.09 57.7207 67.426 57.1887 67.664C56.6567 67.888 56.0407 68 55.3407 68H49.7757ZM51.5397 66.698H55.2987C55.6347 66.698 55.9357 66.614 56.2017 66.446C56.4817 66.278 56.6987 66.054 56.8527 65.774C57.0067 65.494 57.0837 65.2 57.0837 64.892C57.0837 64.556 57.0067 64.255 56.8527 63.989C56.7127 63.709 56.5097 63.492 56.2437 63.338C55.9917 63.17 55.6977 63.086 55.3617 63.086H51.5397V66.698ZM51.5397 61.868H54.9627C55.2987 61.868 55.5927 61.784 55.8447 61.616C56.0967 61.434 56.2927 61.203 56.4327 60.923C56.5727 60.643 56.6427 60.349 56.6427 60.041C56.6427 59.579 56.4887 59.18 56.1807 58.844C55.8867 58.508 55.5017 58.34 55.0257 58.34H51.5397V61.868ZM61.1985 68V57.038H63.0465V61.574H68.7585V57.038H70.6065V68H68.7585V63.212H63.0465V68H61.1985ZM78.4367 68.21C77.6107 68.21 76.8547 68.063 76.1687 67.769C75.4967 67.461 74.9087 67.048 74.4047 66.53C73.9147 65.998 73.5297 65.389 73.2497 64.703C72.9837 64.017 72.8507 63.289 72.8507 62.519C72.8507 61.483 73.0887 60.538 73.5647 59.684C74.0407 58.83 74.6987 58.144 75.5387 57.626C76.3927 57.108 77.3657 56.849 78.4577 56.849C79.5637 56.849 80.5227 57.115 81.3347 57.647C82.1607 58.165 82.7977 58.851 83.2457 59.705C83.7077 60.545 83.9387 61.455 83.9387 62.435C83.9387 62.575 83.9317 62.715 83.9177 62.855C83.9177 62.981 83.9107 63.079 83.8967 63.149H74.8037C74.8597 63.863 75.0557 64.5 75.3917 65.06C75.7417 65.606 76.1897 66.04 76.7357 66.362C77.2817 66.67 77.8697 66.824 78.4997 66.824C79.1717 66.824 79.8017 66.656 80.3897 66.32C80.9917 65.984 81.4047 65.543 81.6287 64.997L83.2247 65.438C82.9867 65.97 82.6297 66.446 82.1537 66.866C81.6917 67.286 81.1387 67.615 80.4947 67.853C79.8647 68.091 79.1787 68.21 78.4367 68.21ZM74.7407 61.868H82.2167C82.1607 61.154 81.9577 60.524 81.6077 59.978C81.2577 59.432 80.8097 59.005 80.2637 58.697C79.7177 58.389 79.1157 58.235 78.4577 58.235C77.8137 58.235 77.2187 58.389 76.6727 58.697C76.1267 59.005 75.6787 59.432 75.3287 59.978C74.9927 60.524 74.7967 61.154 74.7407 61.868ZM87.0503 72.599C86.8123 72.599 86.5673 72.564 86.3153 72.494C86.0773 72.424 85.8323 72.319 85.5803 72.179L86.2103 70.919C86.3363 70.989 86.4553 71.038 86.5673 71.066C86.6933 71.108 86.8123 71.129 86.9243 71.129C87.2603 71.129 87.5753 70.968 87.8693 70.646C88.1773 70.338 88.4643 69.862 88.7303 69.218L89.2553 67.895L84.4463 57.038H86.3993L90.0953 66.131L93.4343 57.038H95.2613L90.1373 69.785C89.8853 70.415 89.5983 70.933 89.2763 71.339C88.9543 71.759 88.6043 72.074 88.2263 72.284C87.8483 72.494 87.4563 72.599 87.0503 72.599ZM103.345 68V63.611C102.911 63.821 102.456 63.975 101.98 64.073C101.518 64.171 101.007 64.22 100.447 64.22C99.2567 64.22 98.3467 63.912 97.7167 63.296C97.1007 62.666 96.7927 61.728 96.7927 60.482V57.038H98.6407V60.23C98.6407 61.112 98.8227 61.756 99.1867 62.162C99.5507 62.568 100.132 62.771 100.93 62.771C101.378 62.771 101.819 62.722 102.253 62.624C102.701 62.526 103.065 62.393 103.345 62.225V57.038H105.214V68H103.345ZM113.054 68.21C112.228 68.21 111.472 68.063 110.786 67.769C110.114 67.461 109.526 67.048 109.022 66.53C108.532 65.998 108.147 65.389 107.867 64.703C107.601 64.017 107.468 63.289 107.468 62.519C107.468 61.483 107.706 60.538 108.182 59.684C108.658 58.83 109.316 58.144 110.156 57.626C111.01 57.108 111.983 56.849 113.075 56.849C114.181 56.849 115.14 57.115 115.952 57.647C116.778 58.165 117.415 58.851 117.863 59.705C118.325 60.545 118.556 61.455 118.556 62.435C118.556 62.575 118.549 62.715 118.535 62.855C118.535 62.981 118.528 63.079 118.514 63.149H109.421C109.477 63.863 109.673 64.5 110.009 65.06C110.359 65.606 110.807 66.04 111.353 66.362C111.899 66.67 112.487 66.824 113.117 66.824C113.789 66.824 114.419 66.656 115.007 66.32C115.609 65.984 116.022 65.543 116.246 64.997L117.842 65.438C117.604 65.97 117.247 66.446 116.771 66.866C116.309 67.286 115.756 67.615 115.112 67.853C114.482 68.091 113.796 68.21 113.054 68.21ZM109.358 61.868H116.834C116.778 61.154 116.575 60.524 116.225 59.978C115.875 59.432 115.427 59.005 114.881 58.697C114.335 58.389 113.733 58.235 113.075 58.235C112.431 58.235 111.836 58.389 111.29 58.697C110.744 59.005 110.296 59.432 109.946 59.978C109.61 60.524 109.414 61.154 109.358 61.868ZM125.776 68.21C123.97 68.21 122.605 67.664 121.681 66.572C120.757 65.48 120.295 63.94 120.295 61.952C120.295 60.594 120.407 59.453 120.631 58.529C120.855 57.591 121.191 56.821 121.639 56.219C122.087 55.603 122.64 55.106 123.298 54.728C123.956 54.336 124.712 54.014 125.566 53.762L130.207 52.355L130.312 53.951L125.797 55.316C125.027 55.568 124.383 55.89 123.865 56.282C123.347 56.674 122.941 57.178 122.647 57.794C122.353 58.41 122.157 59.201 122.059 60.167C122.423 59.425 122.969 58.851 123.697 58.445C124.425 58.025 125.272 57.815 126.238 57.815C127.274 57.815 128.163 58.032 128.905 58.466C129.661 58.886 130.235 59.481 130.627 60.251C131.033 61.007 131.236 61.882 131.236 62.876C131.236 63.94 131.026 64.871 130.606 65.669C130.186 66.467 129.57 67.09 128.758 67.538C127.946 67.986 126.952 68.21 125.776 68.21ZM125.776 66.614C126.91 66.614 127.785 66.285 128.401 65.627C129.031 64.955 129.346 64.066 129.346 62.96C129.346 61.882 129.038 61.007 128.422 60.335C127.806 59.663 126.924 59.327 125.776 59.327C125.104 59.327 124.495 59.467 123.949 59.747C123.417 60.027 122.99 60.44 122.668 60.986C122.36 61.518 122.206 62.176 122.206 62.96C122.206 63.66 122.339 64.29 122.605 64.85C122.885 65.396 123.291 65.83 123.823 66.152C124.355 66.46 125.006 66.614 125.776 66.614ZM133.468 68V57.038H135.316V61.553H136.534L139.978 57.038H142.078L137.983 62.351L142.561 68H140.419L136.534 63.254H135.316V68H133.468ZM148.655 68.21C147.829 68.21 147.073 68.063 146.387 67.769C145.715 67.461 145.127 67.048 144.623 66.53C144.133 65.998 143.748 65.389 143.468 64.703C143.202 64.017 143.069 63.289 143.069 62.519C143.069 61.483 143.307 60.538 143.783 59.684C144.259 58.83 144.917 58.144 145.757 57.626C146.611 57.108 147.584 56.849 148.676 56.849C149.782 56.849 150.741 57.115 151.553 57.647C152.379 58.165 153.016 58.851 153.464 59.705C153.926 60.545 154.157 61.455 154.157 62.435C154.157 62.575 154.15 62.715 154.136 62.855C154.136 62.981 154.129 63.079 154.115 63.149H145.022C145.078 63.863 145.274 64.5 145.61 65.06C145.96 65.606 146.408 66.04 146.954 66.362C147.5 66.67 148.088 66.824 148.718 66.824C149.39 66.824 150.02 66.656 150.608 66.32C151.21 65.984 151.623 65.543 151.847 64.997L153.443 65.438C153.205 65.97 152.848 66.446 152.372 66.866C151.91 67.286 151.357 67.615 150.713 67.853C150.083 68.091 149.397 68.21 148.655 68.21ZM144.959 61.868H152.435C152.379 61.154 152.176 60.524 151.826 59.978C151.476 59.432 151.028 59.005 150.482 58.697C149.936 58.389 149.334 58.235 148.676 58.235C148.032 58.235 147.437 58.389 146.891 58.697C146.345 59.005 145.897 59.432 145.547 59.978C145.211 60.524 145.015 61.154 144.959 61.868ZM32.23 89.157C32.23 89.927 32.034 90.599 31.642 91.173C31.25 91.747 30.718 92.195 30.046 92.517C29.388 92.839 28.66 93 27.862 93H20.785V78.09H28.198C28.898 78.09 29.5 78.279 30.004 78.657C30.522 79.021 30.914 79.497 31.18 80.085C31.46 80.659 31.6 81.261 31.6 81.891C31.6 82.619 31.411 83.305 31.033 83.949C30.669 84.579 30.144 85.048 29.458 85.356C30.312 85.608 30.984 86.077 31.474 86.763C31.978 87.435 32.23 88.233 32.23 89.157ZM30.319 88.821C30.319 88.359 30.214 87.932 30.004 87.54C29.808 87.148 29.535 86.833 29.185 86.595C28.849 86.357 28.457 86.238 28.009 86.238H22.675V91.362H27.862C28.324 91.362 28.737 91.243 29.101 91.005C29.479 90.767 29.773 90.459 29.983 90.081C30.207 89.689 30.319 89.269 30.319 88.821ZM22.675 79.728V84.705H27.421C27.869 84.705 28.261 84.593 28.597 84.369C28.947 84.145 29.22 83.844 29.416 83.466C29.626 83.088 29.731 82.675 29.731 82.227C29.731 81.751 29.633 81.331 29.437 80.967C29.255 80.589 28.996 80.288 28.66 80.064C28.338 79.84 27.967 79.728 27.547 79.728H22.675ZM34.5589 93V82.038H36.4069V85.776H38.6329C39.9209 85.776 40.8939 86.105 41.5519 86.763C42.2239 87.407 42.5599 88.254 42.5599 89.304C42.5599 90.004 42.4129 90.634 42.1189 91.194C41.8389 91.754 41.4189 92.195 40.8589 92.517C40.2989 92.839 39.5989 93 38.7589 93H34.5589ZM36.4069 91.551H38.5069C39.0249 91.551 39.4379 91.453 39.7459 91.257C40.0679 91.047 40.3059 90.774 40.4599 90.438C40.6139 90.102 40.6909 89.738 40.6909 89.346C40.6909 88.968 40.6209 88.618 40.4809 88.296C40.3409 87.974 40.1099 87.715 39.7879 87.519C39.4659 87.323 39.0249 87.225 38.4649 87.225H36.4069V91.551ZM44.4499 93V82.059H46.2979V93H44.4499ZM49.263 93V82.038H51.111V91.383H55.437V82.038H57.306V91.383H61.611V82.038H63.459V93H49.263ZM66.428 93V82.038H68.276V86.553H69.494L72.938 82.038H75.038L70.943 87.351L75.521 93H73.379L69.494 88.254H68.276V93H66.428ZM77.3177 93V82.059H79.1657V90.522L85.2977 82.038H86.9777V93H85.1297V84.705L79.0817 93H77.3177Z" fill="#3E245B"/>
<path d="M203.24 154.84V164.76H198.6V175H187.88V164.76H162.36V162.76L179.88 121.8H191.16L177 154.84H188.2L190.04 142.12H198.6V154.84H203.24Z" fill="#3E245B"/>
</svg>
