<svg width="241" height="175" viewBox="0 0 241 175" fill="none" xmlns="http://www.w3.org/2000/svg">
<path d="M230.269 0C234.878 0 238.768 3.07283 240.007 7.28125H240.5V153.001C240.5 165.151 230.65 175.001 218.5 175.001H22.5C10.3499 175.001 0.500239 165.151 0.5 153.001V29.2812C0.500002 17.131 10.3497 7.28125 22.5 7.28125H192.635C196.054 2.71994 201.437 0.000140492 207.19 0H230.269Z" fill="#C2B0E2"/>
<path d="M20.785 43V28.09H27.001C27.659 28.09 28.261 28.23 28.807 28.51C29.353 28.776 29.829 29.14 30.235 29.602C30.641 30.05 30.956 30.561 31.18 31.135C31.404 31.695 31.516 32.269 31.516 32.857C31.516 33.669 31.334 34.446 30.97 35.188C30.606 35.916 30.095 36.511 29.437 36.973C28.779 37.421 28.009 37.645 27.127 37.645H22.675V43H20.785ZM22.675 35.965H27.022C27.54 35.965 27.988 35.825 28.366 35.545C28.758 35.265 29.059 34.887 29.269 34.411C29.493 33.935 29.605 33.417 29.605 32.857C29.605 32.269 29.479 31.744 29.227 31.282C28.975 30.806 28.646 30.435 28.24 30.169C27.834 29.903 27.386 29.77 26.896 29.77H22.675V35.965ZM32.5909 39.829C32.5909 39.129 32.7869 38.527 33.1789 38.023C33.5849 37.505 34.1379 37.106 34.8379 36.826C35.5379 36.546 36.3499 36.406 37.2739 36.406C37.7639 36.406 38.2819 36.448 38.8279 36.532C39.3739 36.602 39.8569 36.714 40.2769 36.868V36.07C40.2769 35.23 40.0249 34.572 39.5209 34.096C39.0169 33.606 38.3029 33.361 37.3789 33.361C36.7769 33.361 36.1959 33.473 35.6359 33.697C35.0899 33.907 34.5089 34.215 33.8929 34.621L33.2209 33.319C33.9349 32.829 34.6489 32.465 35.3629 32.227C36.0769 31.975 36.8189 31.849 37.5889 31.849C38.9889 31.849 40.0949 32.241 40.9069 33.025C41.7189 33.795 42.1249 34.873 42.1249 36.259V40.9C42.1249 41.124 42.1669 41.292 42.2509 41.404C42.3489 41.502 42.5029 41.558 42.7129 41.572V43C42.5309 43.028 42.3699 43.049 42.2299 43.063C42.1039 43.077 41.9989 43.084 41.9149 43.084C41.4809 43.084 41.1519 42.965 40.9279 42.727C40.7179 42.489 40.5989 42.237 40.5709 41.971L40.5289 41.278C40.0529 41.894 39.4299 42.37 38.6599 42.706C37.8899 43.042 37.1269 43.21 36.3709 43.21C35.6429 43.21 34.9919 43.063 34.4179 42.769C33.8439 42.461 33.3959 42.055 33.0739 41.551C32.7519 41.033 32.5909 40.459 32.5909 39.829ZM39.7309 40.606C39.8989 40.41 40.0319 40.214 40.1299 40.018C40.2279 39.808 40.2769 39.633 40.2769 39.493V38.128C39.8429 37.96 39.3879 37.834 38.9119 37.75C38.4359 37.652 37.9669 37.603 37.5049 37.603C36.5669 37.603 35.8039 37.792 35.2159 38.17C34.6419 38.534 34.3549 39.038 34.3549 39.682C34.3549 40.032 34.4459 40.375 34.6279 40.711C34.8239 41.033 35.1039 41.299 35.4679 41.509C35.8459 41.719 36.3079 41.824 36.8539 41.824C37.4279 41.824 37.9739 41.712 38.4919 41.488C39.0099 41.25 39.4229 40.956 39.7309 40.606ZM48.5029 43.147C47.4389 43.147 46.5359 42.951 45.7939 42.559C45.0659 42.153 44.5059 41.593 44.1139 40.879L45.6259 40.207C45.8779 40.655 46.2349 41.005 46.6969 41.257C47.1729 41.509 47.7469 41.635 48.4189 41.635C49.2169 41.635 49.8469 41.46 50.3089 41.11C50.7709 40.76 51.0019 40.291 51.0019 39.703C51.0019 39.171 50.8129 38.744 50.4349 38.422C50.0709 38.086 49.5529 37.911 48.8809 37.897H47.7679V36.679H48.9439C49.2379 36.679 49.4969 36.609 49.7209 36.469C49.9589 36.315 50.1409 36.112 50.2669 35.86C50.4069 35.608 50.4769 35.328 50.4769 35.02C50.4769 34.53 50.3019 34.138 49.9519 33.844C49.6019 33.536 49.0769 33.382 48.3769 33.382C47.8029 33.382 47.3199 33.494 46.9279 33.718C46.5499 33.942 46.2419 34.278 46.0039 34.726L44.5969 33.97C44.9469 33.312 45.4509 32.801 46.1089 32.437C46.7809 32.059 47.5649 31.87 48.4609 31.87C49.1749 31.87 49.8049 31.989 50.3509 32.227C50.9109 32.451 51.3449 32.78 51.6529 33.214C51.9749 33.648 52.1359 34.173 52.1359 34.789C52.1359 35.307 52.0099 35.79 51.7579 36.238C51.5199 36.672 51.1629 37.001 50.6869 37.225C51.3449 37.421 51.8489 37.764 52.1989 38.254C52.5489 38.73 52.7239 39.297 52.7239 39.955C52.7239 40.627 52.5419 41.201 52.1779 41.677C51.8139 42.153 51.3169 42.517 50.6869 42.769C50.0569 43.021 49.3289 43.147 48.5029 43.147ZM60.8451 43.21C59.9491 43.21 59.1511 42.986 58.4511 42.538C57.7511 42.09 57.1981 41.523 56.7921 40.837V47.473H54.9441V32.038H56.5821V34.096C57.0161 33.424 57.5831 32.885 58.2831 32.479C58.9831 32.059 59.7461 31.849 60.5721 31.849C61.3281 31.849 62.0211 32.003 62.6511 32.311C63.2811 32.619 63.8271 33.039 64.2891 33.571C64.7511 34.103 65.1081 34.712 65.3601 35.398C65.6261 36.07 65.7591 36.777 65.7591 37.519C65.7591 38.555 65.5491 39.507 65.1291 40.375C64.7231 41.243 64.1491 41.936 63.4071 42.454C62.6651 42.958 61.8111 43.21 60.8451 43.21ZM60.2781 41.614C60.8241 41.614 61.3141 41.502 61.7481 41.278C62.1961 41.04 62.5741 40.732 62.8821 40.354C63.2041 39.962 63.4491 39.521 63.6171 39.031C63.7851 38.541 63.8691 38.037 63.8691 37.519C63.8691 36.973 63.7711 36.455 63.5751 35.965C63.3931 35.475 63.1271 35.041 62.7771 34.663C62.4411 34.285 62.0421 33.991 61.5801 33.781C61.1321 33.557 60.6421 33.445 60.1101 33.445C59.7741 33.445 59.4241 33.508 59.0601 33.634C58.7101 33.76 58.3741 33.942 58.0521 34.18C57.7301 34.404 57.4571 34.663 57.2331 34.957C57.0091 35.251 56.8621 35.566 56.7921 35.902V39.031C57.0021 39.507 57.2821 39.941 57.6321 40.333C57.9821 40.725 58.3881 41.04 58.8501 41.278C59.3121 41.502 59.7881 41.614 60.2781 41.614ZM67.1671 39.829C67.1671 39.129 67.3631 38.527 67.7551 38.023C68.1611 37.505 68.7141 37.106 69.4141 36.826C70.1141 36.546 70.9261 36.406 71.8501 36.406C72.3401 36.406 72.8581 36.448 73.4041 36.532C73.9501 36.602 74.4331 36.714 74.8531 36.868V36.07C74.8531 35.23 74.6011 34.572 74.0971 34.096C73.5931 33.606 72.8791 33.361 71.9551 33.361C71.3531 33.361 70.7721 33.473 70.2121 33.697C69.6661 33.907 69.0851 34.215 68.4691 34.621L67.7971 33.319C68.5111 32.829 69.2251 32.465 69.9391 32.227C70.6531 31.975 71.3951 31.849 72.1651 31.849C73.5651 31.849 74.6711 32.241 75.4831 33.025C76.2951 33.795 76.7011 34.873 76.7011 36.259V40.9C76.7011 41.124 76.7431 41.292 76.8271 41.404C76.9251 41.502 77.0791 41.558 77.2891 41.572V43C77.1071 43.028 76.9461 43.049 76.8061 43.063C76.6801 43.077 76.5751 43.084 76.4911 43.084C76.0571 43.084 75.7281 42.965 75.5041 42.727C75.2941 42.489 75.1751 42.237 75.1471 41.971L75.1051 41.278C74.6291 41.894 74.0061 42.37 73.2361 42.706C72.4661 43.042 71.7031 43.21 70.9471 43.21C70.2191 43.21 69.5681 43.063 68.9941 42.769C68.4201 42.461 67.9721 42.055 67.6501 41.551C67.3281 41.033 67.1671 40.459 67.1671 39.829ZM74.3071 40.606C74.4751 40.41 74.6081 40.214 74.7061 40.018C74.8041 39.808 74.8531 39.633 74.8531 39.493V38.128C74.4191 37.96 73.9641 37.834 73.4881 37.75C73.0121 37.652 72.5431 37.603 72.0811 37.603C71.1431 37.603 70.3801 37.792 69.7921 38.17C69.2181 38.534 68.9311 39.038 68.9311 39.682C68.9311 40.032 69.0221 40.375 69.2041 40.711C69.4001 41.033 69.6801 41.299 70.0441 41.509C70.4221 41.719 70.8841 41.824 71.4301 41.824C72.0041 41.824 72.5501 41.712 73.0681 41.488C73.5861 41.25 73.9991 40.956 74.3071 40.606ZM84.822 43.21C83.016 43.21 81.651 42.664 80.727 41.572C79.803 40.48 79.341 38.94 79.341 36.952C79.341 35.594 79.453 34.453 79.677 33.529C79.901 32.591 80.237 31.821 80.685 31.219C81.133 30.603 81.686 30.106 82.344 29.728C83.002 29.336 83.758 29.014 84.612 28.762L89.253 27.355L89.358 28.951L84.843 30.316C84.073 30.568 83.429 30.89 82.911 31.282C82.393 31.674 81.987 32.178 81.693 32.794C81.399 33.41 81.203 34.201 81.105 35.167C81.469 34.425 82.015 33.851 82.743 33.445C83.471 33.025 84.318 32.815 85.284 32.815C86.32 32.815 87.209 33.032 87.951 33.466C88.707 33.886 89.281 34.481 89.673 35.251C90.079 36.007 90.282 36.882 90.282 37.876C90.282 38.94 90.072 39.871 89.652 40.669C89.232 41.467 88.616 42.09 87.804 42.538C86.992 42.986 85.998 43.21 84.822 43.21ZM84.822 41.614C85.956 41.614 86.831 41.285 87.447 40.627C88.077 39.955 88.392 39.066 88.392 37.96C88.392 36.882 88.084 36.007 87.468 35.335C86.852 34.663 85.97 34.327 84.822 34.327C84.15 34.327 83.541 34.467 82.995 34.747C82.463 35.027 82.036 35.44 81.714 35.986C81.406 36.518 81.252 37.176 81.252 37.96C81.252 38.66 81.385 39.29 81.651 39.85C81.931 40.396 82.337 40.83 82.869 41.152C83.401 41.46 84.052 41.614 84.822 41.614ZM97.3229 43.21C96.4969 43.21 95.7479 43.063 95.0759 42.769C94.4039 42.461 93.8229 42.048 93.3329 41.53C92.8429 40.998 92.4649 40.389 92.1989 39.703C91.9329 39.017 91.7999 38.296 91.7999 37.54C91.7999 36.77 91.9329 36.042 92.1989 35.356C92.4649 34.67 92.8429 34.068 93.3329 33.55C93.8229 33.018 94.4039 32.605 95.0759 32.311C95.7619 32.003 96.5109 31.849 97.3229 31.849C98.1489 31.849 98.8979 32.003 99.5699 32.311C100.242 32.605 100.823 33.018 101.313 33.55C101.817 34.068 102.202 34.67 102.468 35.356C102.734 36.042 102.867 36.77 102.867 37.54C102.867 38.296 102.734 39.017 102.468 39.703C102.202 40.389 101.824 40.998 101.334 41.53C100.844 42.048 100.256 42.461 99.5699 42.769C98.8979 43.063 98.1489 43.21 97.3229 43.21ZM93.6899 37.561C93.6899 38.317 93.8509 39.003 94.1729 39.619C94.5089 40.235 94.9499 40.725 95.4959 41.089C96.0419 41.439 96.6509 41.614 97.3229 41.614C97.9949 41.614 98.6039 41.432 99.1499 41.068C99.7099 40.704 100.151 40.214 100.473 39.598C100.809 38.968 100.977 38.275 100.977 37.519C100.977 36.763 100.809 36.077 100.473 35.461C100.151 34.845 99.7099 34.355 99.1499 33.991C98.6039 33.627 97.9949 33.445 97.3229 33.445C96.6509 33.445 96.0419 33.634 95.4959 34.012C94.9499 34.376 94.5089 34.866 94.1729 35.482C93.8509 36.098 93.6899 36.791 93.6899 37.561ZM107.773 43V33.676H103.993V32.038H113.401V33.676H109.621V43H107.773ZM115.237 43V32.038H117.085V36.553H118.303L121.747 32.038H123.847L119.752 37.351L124.33 43H122.188L118.303 38.254H117.085V43H115.237ZM125.286 39.829C125.286 39.129 125.482 38.527 125.874 38.023C126.28 37.505 126.833 37.106 127.533 36.826C128.233 36.546 129.045 36.406 129.969 36.406C130.459 36.406 130.977 36.448 131.523 36.532C132.069 36.602 132.552 36.714 132.972 36.868V36.07C132.972 35.23 132.72 34.572 132.216 34.096C131.712 33.606 130.998 33.361 130.074 33.361C129.472 33.361 128.891 33.473 128.331 33.697C127.785 33.907 127.204 34.215 126.588 34.621L125.916 33.319C126.63 32.829 127.344 32.465 128.058 32.227C128.772 31.975 129.514 31.849 130.284 31.849C131.684 31.849 132.79 32.241 133.602 33.025C134.414 33.795 134.82 34.873 134.82 36.259V40.9C134.82 41.124 134.862 41.292 134.946 41.404C135.044 41.502 135.198 41.558 135.408 41.572V43C135.226 43.028 135.065 43.049 134.925 43.063C134.799 43.077 134.694 43.084 134.61 43.084C134.176 43.084 133.847 42.965 133.623 42.727C133.413 42.489 133.294 42.237 133.266 41.971L133.224 41.278C132.748 41.894 132.125 42.37 131.355 42.706C130.585 43.042 129.822 43.21 129.066 43.21C128.338 43.21 127.687 43.063 127.113 42.769C126.539 42.461 126.091 42.055 125.769 41.551C125.447 41.033 125.286 40.459 125.286 39.829ZM132.426 40.606C132.594 40.41 132.727 40.214 132.825 40.018C132.923 39.808 132.972 39.633 132.972 39.493V38.128C132.538 37.96 132.083 37.834 131.607 37.75C131.131 37.652 130.662 37.603 130.2 37.603C129.262 37.603 128.499 37.792 127.911 38.17C127.337 38.534 127.05 39.038 127.05 39.682C127.05 40.032 127.141 40.375 127.323 40.711C127.519 41.033 127.799 41.299 128.163 41.509C128.541 41.719 129.003 41.824 129.549 41.824C130.123 41.824 130.669 41.712 131.187 41.488C131.705 41.25 132.118 40.956 132.426 40.606ZM25.342 68.21C24.516 68.21 23.76 68.063 23.074 67.769C22.402 67.461 21.814 67.041 21.31 66.509C20.82 65.977 20.435 65.368 20.155 64.682C19.889 63.996 19.756 63.268 19.756 62.498C19.756 61.462 19.987 60.517 20.449 59.663C20.911 58.809 21.562 58.13 22.402 57.626C23.242 57.108 24.215 56.849 25.321 56.849C26.399 56.849 27.337 57.094 28.135 57.584C28.947 58.06 29.549 58.704 29.941 59.516L28.135 60.083C27.855 59.565 27.463 59.166 26.959 58.886C26.455 58.592 25.895 58.445 25.279 58.445C24.607 58.445 23.991 58.62 23.431 58.97C22.885 59.32 22.451 59.803 22.129 60.419C21.807 61.021 21.646 61.714 21.646 62.498C21.646 63.268 21.807 63.968 22.129 64.598C22.465 65.214 22.906 65.704 23.452 66.068C24.012 66.432 24.628 66.614 25.3 66.614C25.734 66.614 26.147 66.537 26.539 66.383C26.945 66.229 27.295 66.026 27.589 65.774C27.897 65.508 28.107 65.221 28.219 64.913L30.025 65.459C29.801 65.991 29.458 66.467 28.996 66.887C28.548 67.293 28.009 67.615 27.379 67.853C26.763 68.091 26.084 68.21 25.342 68.21ZM36.8044 68.21C35.9784 68.21 35.2294 68.063 34.5574 67.769C33.8854 67.461 33.3044 67.048 32.8144 66.53C32.3244 65.998 31.9464 65.389 31.6804 64.703C31.4144 64.017 31.2814 63.296 31.2814 62.54C31.2814 61.77 31.4144 61.042 31.6804 60.356C31.9464 59.67 32.3244 59.068 32.8144 58.55C33.3044 58.018 33.8854 57.605 34.5574 57.311C35.2434 57.003 35.9924 56.849 36.8044 56.849C37.6304 56.849 38.3794 57.003 39.0514 57.311C39.7234 57.605 40.3044 58.018 40.7944 58.55C41.2984 59.068 41.6834 59.67 41.9494 60.356C42.2154 61.042 42.3484 61.77 42.3484 62.54C42.3484 63.296 42.2154 64.017 41.9494 64.703C41.6834 65.389 41.3054 65.998 40.8154 66.53C40.3254 67.048 39.7374 67.461 39.0514 67.769C38.3794 68.063 37.6304 68.21 36.8044 68.21ZM33.1714 62.561C33.1714 63.317 33.3324 64.003 33.6544 64.619C33.9904 65.235 34.4314 65.725 34.9774 66.089C35.5234 66.439 36.1324 66.614 36.8044 66.614C37.4764 66.614 38.0854 66.432 38.6314 66.068C39.1914 65.704 39.6324 65.214 39.9544 64.598C40.2904 63.968 40.4584 63.275 40.4584 62.519C40.4584 61.763 40.2904 61.077 39.9544 60.461C39.6324 59.845 39.1914 59.355 38.6314 58.991C38.0854 58.627 37.4764 58.445 36.8044 58.445C36.1324 58.445 35.5234 58.634 34.9774 59.012C34.4314 59.376 33.9904 59.866 33.6544 60.482C33.3324 61.098 33.1714 61.791 33.1714 62.561ZM49.7537 68.21C47.9477 68.21 46.5827 67.664 45.6587 66.572C44.7347 65.48 44.2727 63.94 44.2727 61.952C44.2727 60.594 44.3847 59.453 44.6087 58.529C44.8327 57.591 45.1687 56.821 45.6167 56.219C46.0647 55.603 46.6177 55.106 47.2757 54.728C47.9337 54.336 48.6897 54.014 49.5437 53.762L54.1847 52.355L54.2897 53.951L49.7747 55.316C49.0047 55.568 48.3607 55.89 47.8427 56.282C47.3247 56.674 46.9187 57.178 46.6247 57.794C46.3307 58.41 46.1347 59.201 46.0367 60.167C46.4007 59.425 46.9467 58.851 47.6747 58.445C48.4027 58.025 49.2497 57.815 50.2157 57.815C51.2517 57.815 52.1407 58.032 52.8827 58.466C53.6387 58.886 54.2127 59.481 54.6047 60.251C55.0107 61.007 55.2137 61.882 55.2137 62.876C55.2137 63.94 55.0037 64.871 54.5837 65.669C54.1637 66.467 53.5477 67.09 52.7357 67.538C51.9237 67.986 50.9297 68.21 49.7537 68.21ZM49.7537 66.614C50.8877 66.614 51.7627 66.285 52.3787 65.627C53.0087 64.955 53.3237 64.066 53.3237 62.96C53.3237 61.882 53.0157 61.007 52.3997 60.335C51.7837 59.663 50.9017 59.327 49.7537 59.327C49.0817 59.327 48.4727 59.467 47.9267 59.747C47.3947 60.027 46.9677 60.44 46.6457 60.986C46.3377 61.518 46.1837 62.176 46.1837 62.96C46.1837 63.66 46.3167 64.29 46.5827 64.85C46.8627 65.396 47.2687 65.83 47.8007 66.152C48.3327 66.46 48.9837 66.614 49.7537 66.614ZM62.3176 68.21C61.4916 68.21 60.7356 68.063 60.0496 67.769C59.3776 67.461 58.7896 67.041 58.2856 66.509C57.7956 65.977 57.4106 65.368 57.1306 64.682C56.8646 63.996 56.7316 63.268 56.7316 62.498C56.7316 61.462 56.9626 60.517 57.4246 59.663C57.8866 58.809 58.5376 58.13 59.3776 57.626C60.2176 57.108 61.1906 56.849 62.2966 56.849C63.3746 56.849 64.3126 57.094 65.1106 57.584C65.9226 58.06 66.5246 58.704 66.9166 59.516L65.1106 60.083C64.8306 59.565 64.4386 59.166 63.9346 58.886C63.4306 58.592 62.8706 58.445 62.2546 58.445C61.5826 58.445 60.9666 58.62 60.4066 58.97C59.8606 59.32 59.4266 59.803 59.1046 60.419C58.7826 61.021 58.6216 61.714 58.6216 62.498C58.6216 63.268 58.7826 63.968 59.1046 64.598C59.4406 65.214 59.8816 65.704 60.4276 66.068C60.9876 66.432 61.6036 66.614 62.2756 66.614C62.7096 66.614 63.1226 66.537 63.5146 66.383C63.9206 66.229 64.2706 66.026 64.5646 65.774C64.8726 65.508 65.0826 65.221 65.1946 64.913L67.0006 65.459C66.7766 65.991 66.4336 66.467 65.9716 66.887C65.5236 67.293 64.9846 67.615 64.3546 67.853C63.7386 68.091 63.0596 68.21 62.3176 68.21ZM71.7615 68V58.676H67.9815V57.038H77.3895V58.676H73.6095V68H71.7615ZM79.2249 68V57.038H84.8949C85.5529 57.038 86.0989 57.171 86.5329 57.437C86.9669 57.689 87.2889 58.018 87.4989 58.424C87.7229 58.83 87.8349 59.264 87.8349 59.726C87.8349 60.314 87.6949 60.846 87.4149 61.322C87.1349 61.784 86.7289 62.134 86.1969 62.372C86.8269 62.554 87.3379 62.883 87.7299 63.359C88.1219 63.821 88.3179 64.395 88.3179 65.081C88.3179 65.697 88.1709 66.222 87.8769 66.656C87.5829 67.09 87.1699 67.426 86.6379 67.664C86.1059 67.888 85.4899 68 84.7899 68H79.2249ZM80.9889 66.698H84.7479C85.0839 66.698 85.3849 66.614 85.6509 66.446C85.9309 66.278 86.1479 66.054 86.3019 65.774C86.4559 65.494 86.5329 65.2 86.5329 64.892C86.5329 64.556 86.4559 64.255 86.3019 63.989C86.1619 63.709 85.9589 63.492 85.6929 63.338C85.4409 63.17 85.1469 63.086 84.8109 63.086H80.9889V66.698ZM80.9889 61.868H84.4119C84.7479 61.868 85.0419 61.784 85.2939 61.616C85.5459 61.434 85.7419 61.203 85.8819 60.923C86.0219 60.643 86.0919 60.349 86.0919 60.041C86.0919 59.579 85.9379 59.18 85.6299 58.844C85.3359 58.508 84.9509 58.34 84.4749 58.34H80.9889V61.868ZM95.5197 68.21C94.6937 68.21 93.9377 68.063 93.2517 67.769C92.5797 67.461 91.9917 67.048 91.4877 66.53C90.9977 65.998 90.6127 65.389 90.3327 64.703C90.0667 64.017 89.9337 63.289 89.9337 62.519C89.9337 61.483 90.1717 60.538 90.6477 59.684C91.1237 58.83 91.7817 58.144 92.6217 57.626C93.4757 57.108 94.4487 56.849 95.5407 56.849C96.6467 56.849 97.6057 57.115 98.4177 57.647C99.2437 58.165 99.8807 58.851 100.329 59.705C100.791 60.545 101.022 61.455 101.022 62.435C101.022 62.575 101.015 62.715 101.001 62.855C101.001 62.981 100.994 63.079 100.98 63.149H91.8867C91.9427 63.863 92.1387 64.5 92.4747 65.06C92.8247 65.606 93.2727 66.04 93.8187 66.362C94.3647 66.67 94.9527 66.824 95.5827 66.824C96.2547 66.824 96.8847 66.656 97.4727 66.32C98.0747 65.984 98.4877 65.543 98.7117 64.997L100.308 65.438C100.07 65.97 99.7127 66.446 99.2367 66.866C98.7747 67.286 98.2217 67.615 97.5777 67.853C96.9477 68.091 96.2617 68.21 95.5197 68.21ZM91.8237 61.868H99.2997C99.2437 61.154 99.0407 60.524 98.6907 59.978C98.3407 59.432 97.8927 59.005 97.3467 58.697C96.8007 58.389 96.1987 58.235 95.5407 58.235C94.8967 58.235 94.3017 58.389 93.7557 58.697C93.2097 59.005 92.7617 59.432 92.4117 59.978C92.0757 60.524 91.8797 61.154 91.8237 61.868ZM103.055 68V57.038H104.903V61.574H110.615V57.038H112.463V68H110.615V63.212H104.903V68H103.055ZM115.421 68V57.038H117.269V61.574H122.981V57.038H124.829V68H122.981V63.212H117.269V68H115.421ZM132.596 68.21C131.77 68.21 131.021 68.063 130.349 67.769C129.677 67.461 129.096 67.048 128.606 66.53C128.116 65.998 127.738 65.389 127.472 64.703C127.206 64.017 127.073 63.296 127.073 62.54C127.073 61.77 127.206 61.042 127.472 60.356C127.738 59.67 128.116 59.068 128.606 58.55C129.096 58.018 129.677 57.605 130.349 57.311C131.035 57.003 131.784 56.849 132.596 56.849C133.422 56.849 134.171 57.003 134.843 57.311C135.515 57.605 136.096 58.018 136.586 58.55C137.09 59.068 137.475 59.67 137.741 60.356C138.007 61.042 138.14 61.77 138.14 62.54C138.14 63.296 138.007 64.017 137.741 64.703C137.475 65.389 137.097 65.998 136.607 66.53C136.117 67.048 135.529 67.461 134.843 67.769C134.171 68.063 133.422 68.21 132.596 68.21ZM128.963 62.561C128.963 63.317 129.124 64.003 129.446 64.619C129.782 65.235 130.223 65.725 130.769 66.089C131.315 66.439 131.924 66.614 132.596 66.614C133.268 66.614 133.877 66.432 134.423 66.068C134.983 65.704 135.424 65.214 135.746 64.598C136.082 63.968 136.25 63.275 136.25 62.519C136.25 61.763 136.082 61.077 135.746 60.461C135.424 59.845 134.983 59.355 134.423 58.991C133.877 58.627 133.268 58.445 132.596 58.445C131.924 58.445 131.315 58.634 130.769 59.012C130.223 59.376 129.782 59.866 129.446 60.482C129.124 61.098 128.963 61.791 128.963 62.561ZM140.359 68V57.038H147.121V58.676H142.207V68H140.359ZM153.801 68.21C152.975 68.21 152.226 68.063 151.554 67.769C150.882 67.461 150.301 67.048 149.811 66.53C149.321 65.998 148.943 65.389 148.677 64.703C148.411 64.017 148.278 63.296 148.278 62.54C148.278 61.77 148.411 61.042 148.677 60.356C148.943 59.67 149.321 59.068 149.811 58.55C150.301 58.018 150.882 57.605 151.554 57.311C152.24 57.003 152.989 56.849 153.801 56.849C154.627 56.849 155.376 57.003 156.048 57.311C156.72 57.605 157.301 58.018 157.791 58.55C158.295 59.068 158.68 59.67 158.946 60.356C159.212 61.042 159.345 61.77 159.345 62.54C159.345 63.296 159.212 64.017 158.946 64.703C158.68 65.389 158.302 65.998 157.812 66.53C157.322 67.048 156.734 67.461 156.048 67.769C155.376 68.063 154.627 68.21 153.801 68.21ZM150.168 62.561C150.168 63.317 150.329 64.003 150.651 64.619C150.987 65.235 151.428 65.725 151.974 66.089C152.52 66.439 153.129 66.614 153.801 66.614C154.473 66.614 155.082 66.432 155.628 66.068C156.188 65.704 156.629 65.214 156.951 64.598C157.287 63.968 157.455 63.275 157.455 62.519C157.455 61.763 157.287 61.077 156.951 60.461C156.629 59.845 156.188 59.355 155.628 58.991C155.082 58.627 154.473 58.445 153.801 58.445C153.129 58.445 152.52 58.634 151.974 59.012C151.428 59.376 150.987 59.866 150.651 60.482C150.329 61.098 150.168 61.791 150.168 62.561ZM20.47 93V82.059H22.318V90.522L28.45 82.038H30.13V93H28.282V84.705L22.234 93H20.47ZM33.0618 93V82.038H38.7318C39.3898 82.038 39.9358 82.171 40.3698 82.437C40.8038 82.689 41.1258 83.018 41.3358 83.424C41.5598 83.83 41.6718 84.264 41.6718 84.726C41.6718 85.314 41.5318 85.846 41.2518 86.322C40.9718 86.784 40.5658 87.134 40.0338 87.372C40.6638 87.554 41.1748 87.883 41.5668 88.359C41.9588 88.821 42.1548 89.395 42.1548 90.081C42.1548 90.697 42.0078 91.222 41.7138 91.656C41.4198 92.09 41.0068 92.426 40.4748 92.664C39.9428 92.888 39.3268 93 38.6268 93H33.0618ZM34.8258 91.698H38.5848C38.9208 91.698 39.2218 91.614 39.4878 91.446C39.7678 91.278 39.9848 91.054 40.1388 90.774C40.2928 90.494 40.3698 90.2 40.3698 89.892C40.3698 89.556 40.2928 89.255 40.1388 88.989C39.9988 88.709 39.7958 88.492 39.5298 88.338C39.2778 88.17 38.9838 88.086 38.6478 88.086H34.8258V91.698ZM34.8258 86.868H38.2488C38.5848 86.868 38.8788 86.784 39.1308 86.616C39.3828 86.434 39.5788 86.203 39.7188 85.923C39.8588 85.643 39.9288 85.349 39.9288 85.041C39.9288 84.579 39.7748 84.18 39.4668 83.844C39.1728 83.508 38.7878 83.34 38.3118 83.34H34.8258V86.868ZM49.3566 93.21C48.5306 93.21 47.7746 93.063 47.0886 92.769C46.4166 92.461 45.8286 92.048 45.3246 91.53C44.8346 90.998 44.4496 90.389 44.1696 89.703C43.9036 89.017 43.7706 88.289 43.7706 87.519C43.7706 86.483 44.0086 85.538 44.4846 84.684C44.9606 83.83 45.6186 83.144 46.4586 82.626C47.3126 82.108 48.2856 81.849 49.3776 81.849C50.4836 81.849 51.4426 82.115 52.2546 82.647C53.0806 83.165 53.7176 83.851 54.1656 84.705C54.6276 85.545 54.8586 86.455 54.8586 87.435C54.8586 87.575 54.8516 87.715 54.8376 87.855C54.8376 87.981 54.8306 88.079 54.8166 88.149H45.7236C45.7796 88.863 45.9756 89.5 46.3116 90.06C46.6616 90.606 47.1096 91.04 47.6556 91.362C48.2016 91.67 48.7896 91.824 49.4196 91.824C50.0916 91.824 50.7216 91.656 51.3096 91.32C51.9116 90.984 52.3246 90.543 52.5486 89.997L54.1446 90.438C53.9066 90.97 53.5496 91.446 53.0736 91.866C52.6116 92.286 52.0586 92.615 51.4146 92.853C50.7846 93.091 50.0986 93.21 49.3566 93.21ZM45.6606 86.868H53.1366C53.0806 86.154 52.8776 85.524 52.5276 84.978C52.1776 84.432 51.7296 84.005 51.1836 83.697C50.6376 83.389 50.0356 83.235 49.3776 83.235C48.7336 83.235 48.1386 83.389 47.5926 83.697C47.0466 84.005 46.5986 84.432 46.2486 84.978C45.9126 85.524 45.7166 86.154 45.6606 86.868ZM56.8919 93V82.038H58.7399V86.574H64.4519V82.038H66.2999V93H64.4519V88.212H58.7399V93H56.8919ZM71.9461 93V83.676H68.1661V82.038H77.5741V83.676H73.7941V93H71.9461ZM78.5695 89.829C78.5695 89.129 78.7655 88.527 79.1575 88.023C79.5635 87.505 80.1165 87.106 80.8165 86.826C81.5165 86.546 82.3285 86.406 83.2525 86.406C83.7425 86.406 84.2605 86.448 84.8065 86.532C85.3525 86.602 85.8355 86.714 86.2555 86.868V86.07C86.2555 85.23 86.0035 84.572 85.4995 84.096C84.9955 83.606 84.2815 83.361 83.3575 83.361C82.7555 83.361 82.1745 83.473 81.6145 83.697C81.0685 83.907 80.4875 84.215 79.8715 84.621L79.1995 83.319C79.9135 82.829 80.6275 82.465 81.3415 82.227C82.0555 81.975 82.7975 81.849 83.5675 81.849C84.9675 81.849 86.0735 82.241 86.8855 83.025C87.6975 83.795 88.1035 84.873 88.1035 86.259V90.9C88.1035 91.124 88.1455 91.292 88.2295 91.404C88.3275 91.502 88.4815 91.558 88.6915 91.572V93C88.5095 93.028 88.3485 93.049 88.2085 93.063C88.0825 93.077 87.9775 93.084 87.8935 93.084C87.4595 93.084 87.1305 92.965 86.9065 92.727C86.6965 92.489 86.5775 92.237 86.5495 91.971L86.5075 91.278C86.0315 91.894 85.4085 92.37 84.6385 92.706C83.8685 93.042 83.1055 93.21 82.3495 93.21C81.6215 93.21 80.9705 93.063 80.3965 92.769C79.8225 92.461 79.3745 92.055 79.0525 91.551C78.7305 91.033 78.5695 90.459 78.5695 89.829ZM85.7095 90.606C85.8775 90.41 86.0105 90.214 86.1085 90.018C86.2065 89.808 86.2555 89.633 86.2555 89.493V88.128C85.8215 87.96 85.3665 87.834 84.8905 87.75C84.4145 87.652 83.9455 87.603 83.4835 87.603C82.5455 87.603 81.7825 87.792 81.1945 88.17C80.6205 88.534 80.3335 89.038 80.3335 89.682C80.3335 90.032 80.4245 90.375 80.6065 90.711C80.8025 91.033 81.0825 91.299 81.4465 91.509C81.8245 91.719 82.2865 91.824 82.8325 91.824C83.4065 91.824 83.9525 91.712 84.4705 91.488C84.9885 91.25 85.4015 90.956 85.7095 90.606Z" fill="#3E245B"/>
<path d="M185.68 165.28H201.92V176H164.64V173.52C172.267 164.667 177.707 158.213 180.96 154.16C184.267 150.053 186.48 146.907 187.6 144.72C188.773 142.533 189.36 140.48 189.36 138.56C189.36 136.693 188.8 135.2 187.68 134.08C186.56 132.96 185.093 132.4 183.28 132.4C181.413 132.4 179.893 132.987 178.72 134.16C177.6 135.28 177.04 136.8 177.04 138.72V139.68H165.6V138.56C165.6 133.6 167.2 129.547 170.4 126.4C173.6 123.253 177.84 121.68 183.12 121.68C186.533 121.68 189.6 122.4 192.32 123.84C195.04 125.227 197.147 127.2 198.64 129.76C200.133 132.32 200.88 135.2 200.88 138.4C200.88 141.813 199.84 145.413 197.76 149.2C195.68 152.987 191.653 158.347 185.68 165.28Z" fill="#3E245B"/>
</svg>
