<svg width="241" height="175" viewBox="0 0 241 175" fill="none" xmlns="http://www.w3.org/2000/svg">
<path d="M230.269 0C234.878 0 238.768 3.07283 240.007 7.28125H240.5V153.001C240.5 165.151 230.65 175.001 218.5 175.001H22.5C10.3499 175.001 0.500239 165.151 0.5 153.001V29.2812C0.500002 17.131 10.3497 7.28125 22.5 7.28125H192.635C196.054 2.71994 201.437 0.000140361 207.19 0H230.269Z" fill="#3E245B"/>
<path d="M20.785 43V28.09H22.675V34.537H24.67L29.584 28.09H31.768L26.224 35.314L32.146 43H29.836L24.712 36.259H22.675V43H20.785ZM38.2604 43.21C37.4344 43.21 36.6854 43.063 36.0134 42.769C35.3414 42.461 34.7604 42.048 34.2704 41.53C33.7804 40.998 33.4024 40.389 33.1364 39.703C32.8704 39.017 32.7374 38.296 32.7374 37.54C32.7374 36.77 32.8704 36.042 33.1364 35.356C33.4024 34.67 33.7804 34.068 34.2704 33.55C34.7604 33.018 35.3414 32.605 36.0134 32.311C36.6994 32.003 37.4484 31.849 38.2604 31.849C39.0864 31.849 39.8354 32.003 40.5074 32.311C41.1794 32.605 41.7604 33.018 42.2504 33.55C42.7544 34.068 43.1394 34.67 43.4054 35.356C43.6714 36.042 43.8044 36.77 43.8044 37.54C43.8044 38.296 43.6714 39.017 43.4054 39.703C43.1394 40.389 42.7614 40.998 42.2714 41.53C41.7814 42.048 41.1934 42.461 40.5074 42.769C39.8354 43.063 39.0864 43.21 38.2604 43.21ZM34.6274 37.561C34.6274 38.317 34.7884 39.003 35.1104 39.619C35.4464 40.235 35.8874 40.725 36.4334 41.089C36.9794 41.439 37.5884 41.614 38.2604 41.614C38.9324 41.614 39.5414 41.432 40.0874 41.068C40.6474 40.704 41.0884 40.214 41.4104 39.598C41.7464 38.968 41.9144 38.275 41.9144 37.519C41.9144 36.763 41.7464 36.077 41.4104 35.461C41.0884 34.845 40.6474 34.355 40.0874 33.991C39.5414 33.627 38.9324 33.445 38.2604 33.445C37.5884 33.445 36.9794 33.634 36.4334 34.012C35.8874 34.376 35.4464 34.866 35.1104 35.482C34.7884 36.098 34.6274 36.791 34.6274 37.561ZM46.0227 43V32.038H47.9337L52.0077 39.22L56.1027 32.038H57.9717V43H56.2077V34.705L52.5957 41.047H51.4197L47.7867 34.705V43H46.0227ZM60.9319 43V32.038H62.7799V35.776H65.5099C66.7979 35.776 67.7709 36.105 68.4289 36.763C69.1009 37.407 69.4369 38.254 69.4369 39.304C69.4369 40.004 69.2899 40.634 68.9959 41.194C68.7159 41.754 68.2959 42.195 67.7359 42.517C67.1759 42.839 66.4759 43 65.6359 43H60.9319ZM62.7799 41.551H65.3839C65.9019 41.551 66.3149 41.453 66.6229 41.257C66.9449 41.047 67.1829 40.774 67.3369 40.438C67.4909 40.102 67.5679 39.738 67.5679 39.346C67.5679 38.968 67.4979 38.618 67.3579 38.296C67.2179 37.974 66.9869 37.715 66.6649 37.519C66.3429 37.323 65.9019 37.225 65.3419 37.225H62.7799V41.551ZM80.5039 43.21C79.5379 43.21 78.6839 43 77.9419 42.58C77.1999 42.16 76.6049 41.586 76.1569 40.858C75.7089 40.116 75.4359 39.276 75.3379 38.338H73.3009V43H71.4529V32.038H73.3009V36.721H75.3379C75.4499 35.755 75.7299 34.908 76.1779 34.18C76.6399 33.438 77.2419 32.864 77.9839 32.458C78.7259 32.052 79.5659 31.849 80.5039 31.849C81.6099 31.849 82.5619 32.108 83.3599 32.626C84.1579 33.13 84.7739 33.809 85.2079 34.663C85.6419 35.517 85.8589 36.476 85.8589 37.54C85.8589 38.632 85.6349 39.605 85.1869 40.459C84.7529 41.313 84.1299 41.985 83.3179 42.475C82.5199 42.965 81.5819 43.21 80.5039 43.21ZM80.5039 41.614C81.1899 41.614 81.7919 41.439 82.3099 41.089C82.8279 40.739 83.2339 40.263 83.5279 39.661C83.8219 39.045 83.9689 38.338 83.9689 37.54C83.9689 36.7 83.8149 35.979 83.5069 35.377C83.2129 34.761 82.7999 34.285 82.2679 33.949C81.7499 33.613 81.1619 33.445 80.5039 33.445C79.8459 33.445 79.2579 33.62 78.7399 33.97C78.2359 34.306 77.8439 34.782 77.5639 35.398C77.2839 36.014 77.1439 36.728 77.1439 37.54C77.1439 38.366 77.2839 39.087 77.5639 39.703C77.8579 40.319 78.2569 40.795 78.7609 41.131C79.2789 41.453 79.8599 41.614 80.5039 41.614ZM88.0843 43V32.038H89.9323V36.574H95.6443V32.038H97.4923V43H95.6443V38.212H89.9323V43H88.0843ZM100.45 43V32.059H102.298V40.522L108.43 32.038H110.11V43H108.262V34.705L102.214 43H100.45ZM115.73 43V33.676H111.95V32.038H121.358V33.676H117.578V43H115.73ZM123.194 43V32.059H125.042V40.522L131.174 32.038H132.854V43H131.006V34.705L124.958 43H123.194ZM25.657 68.21C23.851 68.21 22.486 67.664 21.562 66.572C20.638 65.48 20.176 63.94 20.176 61.952C20.176 60.594 20.288 59.453 20.512 58.529C20.736 57.591 21.072 56.821 21.52 56.219C21.968 55.603 22.521 55.106 23.179 54.728C23.837 54.336 24.593 54.014 25.447 53.762L30.088 52.355L30.193 53.951L25.678 55.316C24.908 55.568 24.264 55.89 23.746 56.282C23.228 56.674 22.822 57.178 22.528 57.794C22.234 58.41 22.038 59.201 21.94 60.167C22.304 59.425 22.85 58.851 23.578 58.445C24.306 58.025 25.153 57.815 26.119 57.815C27.155 57.815 28.044 58.032 28.786 58.466C29.542 58.886 30.116 59.481 30.508 60.251C30.914 61.007 31.117 61.882 31.117 62.876C31.117 63.94 30.907 64.871 30.487 65.669C30.067 66.467 29.451 67.09 28.639 67.538C27.827 67.986 26.833 68.21 25.657 68.21ZM25.657 66.614C26.791 66.614 27.666 66.285 28.282 65.627C28.912 64.955 29.227 64.066 29.227 62.96C29.227 61.882 28.919 61.007 28.303 60.335C27.687 59.663 26.805 59.327 25.657 59.327C24.985 59.327 24.376 59.467 23.83 59.747C23.298 60.027 22.871 60.44 22.549 60.986C22.241 61.518 22.087 62.176 22.087 62.96C22.087 63.66 22.22 64.29 22.486 64.85C22.766 65.396 23.172 65.83 23.704 66.152C24.236 66.46 24.887 66.614 25.657 66.614ZM34.3453 72.599C34.1073 72.599 33.8623 72.564 33.6103 72.494C33.3723 72.424 33.1273 72.319 32.8753 72.179L33.5053 70.919C33.6313 70.989 33.7503 71.038 33.8623 71.066C33.9883 71.108 34.1073 71.129 34.2193 71.129C34.5553 71.129 34.8703 70.968 35.1643 70.646C35.4723 70.338 35.7593 69.862 36.0253 69.218L36.5503 67.895L31.7413 57.038H33.6943L37.3903 66.131L40.7293 57.038H42.5563L37.4323 69.785C37.1803 70.415 36.8933 70.933 36.5713 71.339C36.2493 71.759 35.8993 72.074 35.5213 72.284C35.1433 72.494 34.7513 72.599 34.3453 72.599ZM43.2056 70.583V66.362H43.4366C43.7446 66.362 44.0246 66.271 44.2766 66.089C44.5426 65.907 44.7736 65.592 44.9696 65.144C45.1796 64.682 45.3476 64.052 45.4736 63.254C45.5996 62.456 45.6836 61.441 45.7256 60.209L45.8306 57.038H53.2856V66.362H54.7766V70.583H53.1386V68H44.8436V70.583H43.2056ZM46.0196 66.362H51.4376V58.676H47.4686L47.4056 60.377C47.3636 61.567 47.2796 62.568 47.1536 63.38C47.0416 64.178 46.8876 64.815 46.6916 65.291C46.5096 65.767 46.2856 66.124 46.0196 66.362ZM58.1958 72.599C57.9578 72.599 57.7128 72.564 57.4608 72.494C57.2228 72.424 56.9778 72.319 56.7258 72.179L57.3558 70.919C57.4818 70.989 57.6008 71.038 57.7128 71.066C57.8388 71.108 57.9578 71.129 58.0698 71.129C58.4058 71.129 58.7208 70.968 59.0148 70.646C59.3228 70.338 59.6098 69.862 59.8758 69.218L60.4008 67.895L55.5918 57.038H57.5448L61.2408 66.131L64.5798 57.038H66.4068L61.2828 69.785C61.0308 70.415 60.7438 70.933 60.4218 71.339C60.0998 71.759 59.7498 72.074 59.3718 72.284C58.9938 72.494 58.6018 72.599 58.1958 72.599ZM82.3232 70.583V68H68.2532V57.038H70.1012V66.362H74.4272V57.038H76.2962V66.362H80.6012V57.038H82.4492V66.362H83.9612V70.583H82.3232ZM85.9925 68V57.059H87.8405V65.522L93.9725 57.038H95.6525V68H93.8045V59.705L87.7565 68H85.9925ZM99.4243 57.038L102.322 61.07L102.49 61.406L102.679 61.07L105.556 57.038H107.614L103.561 62.54L107.635 68H105.577L102.679 63.989L102.49 63.674L102.322 63.989L99.4243 68H97.3663L101.44 62.54L97.3873 57.038H99.4243ZM20.47 93V82.059H22.318V90.522L28.45 82.038H30.13V93H28.282V84.705L22.234 93H20.47ZM33.0618 93V82.038H38.7318C39.3898 82.038 39.9358 82.171 40.3698 82.437C40.8038 82.689 41.1258 83.018 41.3358 83.424C41.5598 83.83 41.6718 84.264 41.6718 84.726C41.6718 85.314 41.5318 85.846 41.2518 86.322C40.9718 86.784 40.5658 87.134 40.0338 87.372C40.6638 87.554 41.1748 87.883 41.5668 88.359C41.9588 88.821 42.1548 89.395 42.1548 90.081C42.1548 90.697 42.0078 91.222 41.7138 91.656C41.4198 92.09 41.0068 92.426 40.4748 92.664C39.9428 92.888 39.3268 93 38.6268 93H33.0618ZM34.8258 91.698H38.5848C38.9208 91.698 39.2218 91.614 39.4878 91.446C39.7678 91.278 39.9848 91.054 40.1388 90.774C40.2928 90.494 40.3698 90.2 40.3698 89.892C40.3698 89.556 40.2928 89.255 40.1388 88.989C39.9988 88.709 39.7958 88.492 39.5298 88.338C39.2778 88.17 38.9838 88.086 38.6478 88.086H34.8258V91.698ZM34.8258 86.868H38.2488C38.5848 86.868 38.8788 86.784 39.1308 86.616C39.3828 86.434 39.5788 86.203 39.7188 85.923C39.8588 85.643 39.9288 85.349 39.9288 85.041C39.9288 84.579 39.7748 84.18 39.4668 83.844C39.1728 83.508 38.7878 83.34 38.3118 83.34H34.8258V86.868ZM49.3566 93.21C48.5306 93.21 47.7746 93.063 47.0886 92.769C46.4166 92.461 45.8286 92.048 45.3246 91.53C44.8346 90.998 44.4496 90.389 44.1696 89.703C43.9036 89.017 43.7706 88.289 43.7706 87.519C43.7706 86.483 44.0086 85.538 44.4846 84.684C44.9606 83.83 45.6186 83.144 46.4586 82.626C47.3126 82.108 48.2856 81.849 49.3776 81.849C50.4836 81.849 51.4426 82.115 52.2546 82.647C53.0806 83.165 53.7176 83.851 54.1656 84.705C54.6276 85.545 54.8586 86.455 54.8586 87.435C54.8586 87.575 54.8516 87.715 54.8376 87.855C54.8376 87.981 54.8306 88.079 54.8166 88.149H45.7236C45.7796 88.863 45.9756 89.5 46.3116 90.06C46.6616 90.606 47.1096 91.04 47.6556 91.362C48.2016 91.67 48.7896 91.824 49.4196 91.824C50.0916 91.824 50.7216 91.656 51.3096 91.32C51.9116 90.984 52.3246 90.543 52.5486 89.997L54.1446 90.438C53.9066 90.97 53.5496 91.446 53.0736 91.866C52.6116 92.286 52.0586 92.615 51.4146 92.853C50.7846 93.091 50.0986 93.21 49.3566 93.21ZM45.6606 86.868H53.1366C53.0806 86.154 52.8776 85.524 52.5276 84.978C52.1776 84.432 51.7296 84.005 51.1836 83.697C50.6376 83.389 50.0356 83.235 49.3776 83.235C48.7336 83.235 48.1386 83.389 47.5926 83.697C47.0466 84.005 46.5986 84.432 46.2486 84.978C45.9126 85.524 45.7166 86.154 45.6606 86.868ZM56.8919 93V82.038H58.7399V86.574H64.4519V82.038H66.2999V93H64.4519V88.212H58.7399V93H56.8919ZM71.9461 93V83.676H68.1661V82.038H77.5741V83.676H73.7941V93H71.9461ZM93.4795 95.583V93H79.4095V82.038H81.2575V91.362H85.5835V82.038H87.4525V91.362H91.7575V82.038H93.6055V91.362H95.1175V95.583H93.4795ZM97.1487 93V82.059H98.9967V90.522L105.129 82.038H106.809V93H104.961V84.705L98.9127 93H97.1487ZM109.741 93V82.038H111.589V86.553H112.807L116.251 82.038H118.351L114.256 87.351L118.834 93H116.692L112.807 88.254H111.589V93H109.741ZM124.865 93.21C124.039 93.21 123.29 93.063 122.618 92.769C121.946 92.461 121.365 92.048 120.875 91.53C120.385 90.998 120.007 90.389 119.741 89.703C119.475 89.017 119.342 88.296 119.342 87.54C119.342 86.77 119.475 86.042 119.741 85.356C120.007 84.67 120.385 84.068 120.875 83.55C121.365 83.018 121.946 82.605 122.618 82.311C123.304 82.003 124.053 81.849 124.865 81.849C125.691 81.849 126.44 82.003 127.112 82.311C127.784 82.605 128.365 83.018 128.855 83.55C129.359 84.068 129.744 84.67 130.01 85.356C130.276 86.042 130.409 86.77 130.409 87.54C130.409 88.296 130.276 89.017 130.01 89.703C129.744 90.389 129.366 90.998 128.876 91.53C128.386 92.048 127.798 92.461 127.112 92.769C126.44 93.063 125.691 93.21 124.865 93.21ZM121.232 87.561C121.232 88.317 121.393 89.003 121.715 89.619C122.051 90.235 122.492 90.725 123.038 91.089C123.584 91.439 124.193 91.614 124.865 91.614C125.537 91.614 126.146 91.432 126.692 91.068C127.252 90.704 127.693 90.214 128.015 89.598C128.351 88.968 128.519 88.275 128.519 87.519C128.519 86.763 128.351 86.077 128.015 85.461C127.693 84.845 127.252 84.355 126.692 83.991C126.146 83.627 125.537 83.445 124.865 83.445C124.193 83.445 123.584 83.634 123.038 84.012C122.492 84.376 122.051 84.866 121.715 85.482C121.393 86.098 121.232 86.791 121.232 87.561ZM132.627 93V82.038H138.297C138.955 82.038 139.501 82.171 139.935 82.437C140.369 82.689 140.691 83.018 140.901 83.424C141.125 83.83 141.237 84.264 141.237 84.726C141.237 85.314 141.097 85.846 140.817 86.322C140.537 86.784 140.131 87.134 139.599 87.372C140.229 87.554 140.74 87.883 141.132 88.359C141.524 88.821 141.72 89.395 141.72 90.081C141.72 90.697 141.573 91.222 141.279 91.656C140.985 92.09 140.572 92.426 140.04 92.664C139.508 92.888 138.892 93 138.192 93H132.627ZM134.391 91.698H138.15C138.486 91.698 138.787 91.614 139.053 91.446C139.333 91.278 139.55 91.054 139.704 90.774C139.858 90.494 139.935 90.2 139.935 89.892C139.935 89.556 139.858 89.255 139.704 88.989C139.564 88.709 139.361 88.492 139.095 88.338C138.843 88.17 138.549 88.086 138.213 88.086H134.391V91.698ZM134.391 86.868H137.814C138.15 86.868 138.444 86.784 138.696 86.616C138.948 86.434 139.144 86.203 139.284 85.923C139.424 85.643 139.494 85.349 139.494 85.041C139.494 84.579 139.34 84.18 139.032 83.844C138.738 83.508 138.353 83.34 137.877 83.34H134.391V86.868Z" fill="#FBD652"/>
<path d="M188.52 141.48C192.467 142.387 195.613 144.333 197.96 147.32C200.36 150.253 201.56 153.8 201.56 157.96C201.56 163.133 199.773 167.427 196.2 170.84C192.627 174.253 188.12 175.96 182.68 175.96C177.4 175.96 173.053 174.307 169.64 171C166.28 167.693 164.493 163.427 164.28 158.2H175.72C175.827 160.333 176.52 162.067 177.8 163.4C179.08 164.68 180.707 165.32 182.68 165.32C184.813 165.32 186.573 164.6 187.96 163.16C189.347 161.72 190.04 159.88 190.04 157.64C190.04 155.347 189.293 153.533 187.8 152.2C186.307 150.867 184.333 150.2 181.88 150.2H174.2V148.04L183.88 132.04H165.56V121.8H199.56V123.96L188.52 141.48Z" fill="#FBD652"/>
</svg>
