<svg width="241" height="175" viewBox="0 0 241 175" fill="none" xmlns="http://www.w3.org/2000/svg">
<path d="M230.269 0C234.878 0 238.768 3.07283 240.007 7.28125H240.5V153.001C240.5 165.151 230.65 175.001 218.5 175.001H22.5C10.3499 175.001 0.500239 165.151 0.5 153.001V29.2812C0.500002 17.131 10.3497 7.28125 22.5 7.28125H192.635C196.054 2.71994 201.437 0.000140492 207.19 0H230.269Z" fill="#FBD652"/>
<path d="M26.833 43.105C25.783 43.105 24.831 42.895 23.977 42.475C23.123 42.055 22.381 41.488 21.751 40.774C21.135 40.046 20.659 39.234 20.323 38.338C19.987 37.428 19.819 36.497 19.819 35.545C19.819 34.551 19.994 33.606 20.344 32.71C20.708 31.8 21.205 30.995 21.835 30.295C22.479 29.581 23.228 29.021 24.082 28.615C24.936 28.195 25.867 27.985 26.875 27.985C27.925 27.985 28.877 28.202 29.731 28.636C30.585 29.07 31.32 29.651 31.936 30.379C32.552 31.107 33.028 31.919 33.364 32.815C33.7 33.711 33.868 34.628 33.868 35.566C33.868 36.56 33.693 37.512 33.343 38.422C32.993 39.318 32.496 40.123 31.852 40.837C31.222 41.537 30.48 42.09 29.626 42.496C28.772 42.902 27.841 43.105 26.833 43.105ZM21.73 35.545C21.73 36.301 21.849 37.036 22.087 37.75C22.339 38.45 22.689 39.073 23.137 39.619C23.585 40.165 24.124 40.599 24.754 40.921C25.384 41.243 26.084 41.404 26.854 41.404C27.652 41.404 28.366 41.236 28.996 40.9C29.626 40.564 30.158 40.116 30.592 39.556C31.04 38.996 31.376 38.366 31.6 37.666C31.838 36.966 31.957 36.259 31.957 35.545C31.957 34.789 31.831 34.061 31.579 33.361C31.341 32.661 30.991 32.038 30.529 31.492C30.081 30.932 29.542 30.498 28.912 30.19C28.296 29.868 27.61 29.707 26.854 29.707C26.056 29.707 25.342 29.875 24.712 30.211C24.082 30.533 23.543 30.974 23.095 31.534C22.661 32.094 22.325 32.724 22.087 33.424C21.849 34.11 21.73 34.817 21.73 35.545ZM41.366 43.21C39.56 43.21 38.195 42.664 37.271 41.572C36.347 40.48 35.885 38.94 35.885 36.952C35.885 35.594 35.997 34.453 36.221 33.529C36.445 32.591 36.781 31.821 37.229 31.219C37.677 30.603 38.23 30.106 38.888 29.728C39.546 29.336 40.302 29.014 41.156 28.762L45.797 27.355L45.902 28.951L41.387 30.316C40.617 30.568 39.973 30.89 39.455 31.282C38.937 31.674 38.531 32.178 38.237 32.794C37.943 33.41 37.747 34.201 37.649 35.167C38.013 34.425 38.559 33.851 39.287 33.445C40.015 33.025 40.862 32.815 41.828 32.815C42.864 32.815 43.753 33.032 44.495 33.466C45.251 33.886 45.825 34.481 46.217 35.251C46.623 36.007 46.826 36.882 46.826 37.876C46.826 38.94 46.616 39.871 46.196 40.669C45.776 41.467 45.16 42.09 44.348 42.538C43.536 42.986 42.542 43.21 41.366 43.21ZM41.366 41.614C42.5 41.614 43.375 41.285 43.991 40.627C44.621 39.955 44.936 39.066 44.936 37.96C44.936 36.882 44.628 36.007 44.012 35.335C43.396 34.663 42.514 34.327 41.366 34.327C40.694 34.327 40.085 34.467 39.539 34.747C39.007 35.027 38.58 35.44 38.258 35.986C37.95 36.518 37.796 37.176 37.796 37.96C37.796 38.66 37.929 39.29 38.195 39.85C38.475 40.396 38.881 40.83 39.413 41.152C39.945 41.46 40.596 41.614 41.366 41.614ZM50.0542 47.599C49.8162 47.599 49.5712 47.564 49.3192 47.494C49.0812 47.424 48.8362 47.319 48.5842 47.179L49.2142 45.919C49.3402 45.989 49.4592 46.038 49.5712 46.066C49.6972 46.108 49.8162 46.129 49.9282 46.129C50.2642 46.129 50.5792 45.968 50.8732 45.646C51.1812 45.338 51.4682 44.862 51.7342 44.218L52.2592 42.895L47.4502 32.038H49.4032L53.0992 41.131L56.4382 32.038H58.2652L53.1412 44.785C52.8892 45.415 52.6022 45.933 52.2802 46.339C51.9582 46.759 51.6082 47.074 51.2302 47.284C50.8522 47.494 50.4602 47.599 50.0542 47.599ZM66.3486 43V38.611C65.9146 38.821 65.4596 38.975 64.9836 39.073C64.5216 39.171 64.0106 39.22 63.4506 39.22C62.2606 39.22 61.3506 38.912 60.7206 38.296C60.1046 37.666 59.7966 36.728 59.7966 35.482V32.038H61.6446V35.23C61.6446 36.112 61.8266 36.756 62.1906 37.162C62.5546 37.568 63.1356 37.771 63.9336 37.771C64.3816 37.771 64.8226 37.722 65.2566 37.624C65.7046 37.526 66.0686 37.393 66.3486 37.225V32.038H68.2176V43H66.3486ZM76.0578 43.21C75.2318 43.21 74.4758 43.063 73.7898 42.769C73.1178 42.461 72.5298 42.048 72.0258 41.53C71.5358 40.998 71.1508 40.389 70.8708 39.703C70.6048 39.017 70.4718 38.289 70.4718 37.519C70.4718 36.483 70.7098 35.538 71.1858 34.684C71.6618 33.83 72.3198 33.144 73.1598 32.626C74.0138 32.108 74.9868 31.849 76.0788 31.849C77.1848 31.849 78.1438 32.115 78.9558 32.647C79.7818 33.165 80.4188 33.851 80.8668 34.705C81.3288 35.545 81.5598 36.455 81.5598 37.435C81.5598 37.575 81.5528 37.715 81.5388 37.855C81.5388 37.981 81.5318 38.079 81.5178 38.149H72.4248C72.4808 38.863 72.6768 39.5 73.0128 40.06C73.3628 40.606 73.8108 41.04 74.3568 41.362C74.9028 41.67 75.4908 41.824 76.1208 41.824C76.7928 41.824 77.4228 41.656 78.0108 41.32C78.6128 40.984 79.0258 40.543 79.2498 39.997L80.8458 40.438C80.6078 40.97 80.2508 41.446 79.7748 41.866C79.3128 42.286 78.7598 42.615 78.1158 42.853C77.4858 43.091 76.7998 43.21 76.0578 43.21ZM72.3618 36.868H79.8378C79.7818 36.154 79.5788 35.524 79.2288 34.978C78.8788 34.432 78.4308 34.005 77.8848 33.697C77.3388 33.389 76.7368 33.235 76.0788 33.235C75.4348 33.235 74.8398 33.389 74.2938 33.697C73.7478 34.005 73.2998 34.432 72.9498 34.978C72.6138 35.524 72.4178 36.154 72.3618 36.868ZM83.593 43V32.038H85.441V36.574H91.153V32.038H93.001V43H91.153V38.212H85.441V43H83.593ZM95.9593 43V32.059H97.8073V40.522L103.939 32.038H105.619V43H103.771V34.705L97.7233 43H95.9593ZM113.423 43.21C112.597 43.21 111.841 43.063 111.155 42.769C110.483 42.461 109.895 42.048 109.391 41.53C108.901 40.998 108.516 40.389 108.236 39.703C107.97 39.017 107.837 38.289 107.837 37.519C107.837 36.483 108.075 35.538 108.551 34.684C109.027 33.83 109.685 33.144 110.525 32.626C111.379 32.108 112.352 31.849 113.444 31.849C114.55 31.849 115.509 32.115 116.321 32.647C117.147 33.165 117.784 33.851 118.232 34.705C118.694 35.545 118.925 36.455 118.925 37.435C118.925 37.575 118.918 37.715 118.904 37.855C118.904 37.981 118.897 38.079 118.883 38.149H109.79C109.846 38.863 110.042 39.5 110.378 40.06C110.728 40.606 111.176 41.04 111.722 41.362C112.268 41.67 112.856 41.824 113.486 41.824C114.158 41.824 114.788 41.656 115.376 41.32C115.978 40.984 116.391 40.543 116.615 39.997L118.211 40.438C117.973 40.97 117.616 41.446 117.14 41.866C116.678 42.286 116.125 42.615 115.481 42.853C114.851 43.091 114.165 43.21 113.423 43.21ZM109.727 36.868H117.203C117.147 36.154 116.944 35.524 116.594 34.978C116.244 34.432 115.796 34.005 115.25 33.697C114.704 33.389 114.102 33.235 113.444 33.235C112.8 33.235 112.205 33.389 111.659 33.697C111.113 34.005 110.665 34.432 110.315 34.978C109.979 35.524 109.783 36.154 109.727 36.868ZM25.342 68.21C24.516 68.21 23.76 68.063 23.074 67.769C22.402 67.461 21.814 67.041 21.31 66.509C20.82 65.977 20.435 65.368 20.155 64.682C19.889 63.996 19.756 63.268 19.756 62.498C19.756 61.462 19.987 60.517 20.449 59.663C20.911 58.809 21.562 58.13 22.402 57.626C23.242 57.108 24.215 56.849 25.321 56.849C26.399 56.849 27.337 57.094 28.135 57.584C28.947 58.06 29.549 58.704 29.941 59.516L28.135 60.083C27.855 59.565 27.463 59.166 26.959 58.886C26.455 58.592 25.895 58.445 25.279 58.445C24.607 58.445 23.991 58.62 23.431 58.97C22.885 59.32 22.451 59.803 22.129 60.419C21.807 61.021 21.646 61.714 21.646 62.498C21.646 63.268 21.807 63.968 22.129 64.598C22.465 65.214 22.906 65.704 23.452 66.068C24.012 66.432 24.628 66.614 25.3 66.614C25.734 66.614 26.147 66.537 26.539 66.383C26.945 66.229 27.295 66.026 27.589 65.774C27.897 65.508 28.107 65.221 28.219 64.913L30.025 65.459C29.801 65.991 29.458 66.467 28.996 66.887C28.548 67.293 28.009 67.615 27.379 67.853C26.763 68.091 26.084 68.21 25.342 68.21ZM36.8425 68C36.8425 67.44 36.8845 66.915 36.9685 66.425C37.0665 65.935 37.2345 65.466 37.4725 65.018C37.7245 64.57 38.0745 64.143 38.5225 63.737C38.9705 63.317 39.5515 62.911 40.2655 62.519C40.6855 62.281 41.1055 62.057 41.5255 61.847C41.9595 61.637 42.3585 61.413 42.7225 61.175C43.1005 60.937 43.4015 60.678 43.6255 60.398C43.8495 60.104 43.9615 59.768 43.9615 59.39C43.9615 59.068 43.8635 58.76 43.6675 58.466C43.4855 58.158 43.2055 57.913 42.8275 57.731C42.4635 57.535 42.0085 57.437 41.4625 57.437C41.0425 57.437 40.6575 57.493 40.3075 57.605C39.9715 57.717 39.6635 57.864 39.3835 58.046C39.1175 58.214 38.8795 58.396 38.6695 58.592C38.4735 58.774 38.3055 58.942 38.1655 59.096L37.0105 57.794C37.1225 57.668 37.3115 57.5 37.5775 57.29C37.8435 57.066 38.1795 56.842 38.5855 56.618C38.9915 56.394 39.4605 56.205 39.9925 56.051C40.5385 55.883 41.1335 55.799 41.7775 55.799C42.6455 55.799 43.3875 55.953 44.0035 56.261C44.6335 56.555 45.1165 56.961 45.4525 57.479C45.7885 57.983 45.9565 58.55 45.9565 59.18C45.9565 59.726 45.8375 60.202 45.5995 60.608C45.3755 61.014 45.0815 61.371 44.7175 61.679C44.3675 61.987 43.9965 62.253 43.6045 62.477C43.2265 62.687 42.8835 62.869 42.5755 63.023C41.9455 63.331 41.4065 63.611 40.9585 63.863C40.5105 64.115 40.1395 64.367 39.8455 64.619C39.5655 64.857 39.3345 65.109 39.1525 65.375C38.9845 65.641 38.8585 65.956 38.7745 66.32H46.1875V68H36.8425ZM47.9337 61.154C47.9337 60.202 48.1647 59.341 48.6267 58.571C49.1027 57.787 49.7467 57.164 50.5587 56.702C51.3707 56.24 52.2737 56.009 53.2677 56.009C54.3457 56.009 55.2837 56.268 56.0817 56.786C56.8937 57.29 57.5237 58.025 57.9717 58.991C58.4337 59.943 58.6647 61.091 58.6647 62.435C58.6647 64.395 58.4337 66.026 57.9717 67.328C57.5097 68.63 56.8587 69.603 56.0187 70.247C55.1787 70.905 54.1987 71.234 53.0787 71.234C52.1127 71.234 51.2307 70.996 50.4327 70.52C49.6487 70.058 49.0327 69.414 48.5847 68.588L49.7187 67.475C50.0267 68.119 50.4817 68.637 51.0837 69.029C51.6997 69.421 52.3717 69.617 53.0997 69.617C53.8697 69.617 54.5347 69.386 55.0947 68.924C55.6687 68.462 56.1097 67.797 56.4177 66.929C56.7397 66.061 56.9077 65.011 56.9217 63.779C56.7257 64.255 56.4317 64.675 56.0397 65.039C55.6617 65.403 55.2207 65.683 54.7167 65.879C54.2127 66.075 53.6667 66.173 53.0787 66.173C52.1267 66.173 51.2587 65.949 50.4747 65.501C49.6907 65.053 49.0677 64.451 48.6057 63.695C48.1577 62.939 47.9337 62.092 47.9337 61.154ZM53.2467 57.605C52.6027 57.605 52.0077 57.766 51.4617 58.088C50.9297 58.41 50.5027 58.837 50.1807 59.369C49.8587 59.901 49.6977 60.496 49.6977 61.154C49.6977 61.798 49.8587 62.386 50.1807 62.918C50.5027 63.45 50.9297 63.877 51.4617 64.199C52.0077 64.521 52.6027 64.682 53.2467 64.682C53.9047 64.682 54.4997 64.521 55.0317 64.199C55.5637 63.877 55.9907 63.45 56.3127 62.918C56.6347 62.386 56.7957 61.798 56.7957 61.154C56.7957 60.51 56.6347 59.922 56.3127 59.39C55.9907 58.844 55.5567 58.41 55.0107 58.088C54.4787 57.766 53.8907 57.605 53.2467 57.605ZM71.1975 68.21C70.3715 68.21 69.6155 68.063 68.9295 67.769C68.2575 67.461 67.6695 67.041 67.1655 66.509C66.6755 65.977 66.2905 65.368 66.0105 64.682C65.7445 63.996 65.6115 63.268 65.6115 62.498C65.6115 61.462 65.8425 60.517 66.3045 59.663C66.7665 58.809 67.4175 58.13 68.2575 57.626C69.0975 57.108 70.0705 56.849 71.1765 56.849C72.2545 56.849 73.1925 57.094 73.9905 57.584C74.8025 58.06 75.4045 58.704 75.7965 59.516L73.9905 60.083C73.7105 59.565 73.3185 59.166 72.8145 58.886C72.3105 58.592 71.7505 58.445 71.1345 58.445C70.4625 58.445 69.8465 58.62 69.2865 58.97C68.7405 59.32 68.3065 59.803 67.9845 60.419C67.6625 61.021 67.5015 61.714 67.5015 62.498C67.5015 63.268 67.6625 63.968 67.9845 64.598C68.3205 65.214 68.7615 65.704 69.3075 66.068C69.8675 66.432 70.4835 66.614 71.1555 66.614C71.5895 66.614 72.0025 66.537 72.3945 66.383C72.8005 66.229 73.1505 66.026 73.4445 65.774C73.7525 65.508 73.9625 65.221 74.0745 64.913L75.8805 65.459C75.6565 65.991 75.3135 66.467 74.8515 66.887C74.4035 67.293 73.8645 67.615 73.2345 67.853C72.6185 68.091 71.9395 68.21 71.1975 68.21ZM82.7229 68.21C81.8969 68.21 81.1409 68.063 80.4549 67.769C79.7829 67.461 79.1949 67.048 78.6909 66.53C78.2009 65.998 77.8159 65.389 77.5359 64.703C77.2699 64.017 77.1369 63.289 77.1369 62.519C77.1369 61.483 77.3749 60.538 77.8509 59.684C78.3269 58.83 78.9849 58.144 79.8249 57.626C80.6789 57.108 81.6519 56.849 82.7439 56.849C83.8499 56.849 84.8089 57.115 85.6209 57.647C86.4469 58.165 87.0839 58.851 87.5319 59.705C87.9939 60.545 88.2249 61.455 88.2249 62.435C88.2249 62.575 88.2179 62.715 88.2039 62.855C88.2039 62.981 88.1969 63.079 88.1829 63.149H79.0899C79.1459 63.863 79.3419 64.5 79.6779 65.06C80.0279 65.606 80.4759 66.04 81.0219 66.362C81.5679 66.67 82.1559 66.824 82.7859 66.824C83.4579 66.824 84.0879 66.656 84.6759 66.32C85.2779 65.984 85.6909 65.543 85.9149 64.997L87.5109 65.438C87.2729 65.97 86.9159 66.446 86.4399 66.866C85.9779 67.286 85.4249 67.615 84.7809 67.853C84.1509 68.091 83.4649 68.21 82.7229 68.21ZM79.0269 61.868H86.5029C86.4469 61.154 86.2439 60.524 85.8939 59.978C85.5439 59.432 85.0959 59.005 84.5499 58.697C84.0039 58.389 83.4019 58.235 82.7439 58.235C82.0999 58.235 81.5049 58.389 80.9589 58.697C80.4129 59.005 79.9649 59.432 79.6149 59.978C79.2789 60.524 79.0829 61.154 79.0269 61.868ZM90.2581 68V57.038H92.1061V61.574H97.8181V57.038H99.6661V68H97.8181V63.212H92.1061V68H90.2581ZM105.312 68V58.676H101.532V57.038H110.94V58.676H107.16V68H105.312ZM111.875 68L114.983 63.59C114.269 63.45 113.695 63.114 113.261 62.582C112.827 62.036 112.61 61.308 112.61 60.398C112.61 59.74 112.764 59.159 113.072 58.655C113.38 58.151 113.807 57.752 114.353 57.458C114.913 57.164 115.564 57.017 116.306 57.017H120.8V68H118.952V63.884H116.81L113.912 68H111.875ZM116.432 62.519H118.952V58.466H116.642C115.984 58.466 115.459 58.655 115.067 59.033C114.675 59.397 114.479 59.866 114.479 60.44C114.479 61.014 114.64 61.504 114.962 61.91C115.298 62.316 115.788 62.519 116.432 62.519ZM128.955 68.21C127.149 68.21 125.784 67.664 124.86 66.572C123.936 65.48 123.474 63.94 123.474 61.952C123.474 60.594 123.586 59.453 123.81 58.529C124.034 57.591 124.37 56.821 124.818 56.219C125.266 55.603 125.819 55.106 126.477 54.728C127.135 54.336 127.891 54.014 128.745 53.762L133.386 52.355L133.491 53.951L128.976 55.316C128.206 55.568 127.562 55.89 127.044 56.282C126.526 56.674 126.12 57.178 125.826 57.794C125.532 58.41 125.336 59.201 125.238 60.167C125.602 59.425 126.148 58.851 126.876 58.445C127.604 58.025 128.451 57.815 129.417 57.815C130.453 57.815 131.342 58.032 132.084 58.466C132.84 58.886 133.414 59.481 133.806 60.251C134.212 61.007 134.415 61.882 134.415 62.876C134.415 63.94 134.205 64.871 133.785 65.669C133.365 66.467 132.749 67.09 131.937 67.538C131.125 67.986 130.131 68.21 128.955 68.21ZM128.955 66.614C130.089 66.614 130.964 66.285 131.58 65.627C132.21 64.955 132.525 64.066 132.525 62.96C132.525 61.882 132.217 61.007 131.601 60.335C130.985 59.663 130.103 59.327 128.955 59.327C128.283 59.327 127.674 59.467 127.128 59.747C126.596 60.027 126.169 60.44 125.847 60.986C125.539 61.518 125.385 62.176 125.385 62.96C125.385 63.66 125.518 64.29 125.784 64.85C126.064 65.396 126.47 65.83 127.002 66.152C127.534 66.46 128.185 66.614 128.955 66.614ZM142.569 68.21C141.673 68.21 140.875 67.986 140.175 67.538C139.475 67.09 138.922 66.523 138.516 65.837V72.473H136.668V57.038H138.306V59.096C138.74 58.424 139.307 57.885 140.007 57.479C140.707 57.059 141.47 56.849 142.296 56.849C143.052 56.849 143.745 57.003 144.375 57.311C145.005 57.619 145.551 58.039 146.013 58.571C146.475 59.103 146.832 59.712 147.084 60.398C147.35 61.07 147.483 61.777 147.483 62.519C147.483 63.555 147.273 64.507 146.853 65.375C146.447 66.243 145.873 66.936 145.131 67.454C144.389 67.958 143.535 68.21 142.569 68.21ZM142.002 66.614C142.548 66.614 143.038 66.502 143.472 66.278C143.92 66.04 144.298 65.732 144.606 65.354C144.928 64.962 145.173 64.521 145.341 64.031C145.509 63.541 145.593 63.037 145.593 62.519C145.593 61.973 145.495 61.455 145.299 60.965C145.117 60.475 144.851 60.041 144.501 59.663C144.165 59.285 143.766 58.991 143.304 58.781C142.856 58.557 142.366 58.445 141.834 58.445C141.498 58.445 141.148 58.508 140.784 58.634C140.434 58.76 140.098 58.942 139.776 59.18C139.454 59.404 139.181 59.663 138.957 59.957C138.733 60.251 138.586 60.566 138.516 60.902V64.031C138.726 64.507 139.006 64.941 139.356 65.333C139.706 65.725 140.112 66.04 140.574 66.278C141.036 66.502 141.512 66.614 142.002 66.614ZM148.933 68L152.041 63.59C151.327 63.45 150.753 63.114 150.319 62.582C149.885 62.036 149.668 61.308 149.668 60.398C149.668 59.74 149.822 59.159 150.13 58.655C150.438 58.151 150.865 57.752 151.411 57.458C151.971 57.164 152.622 57.017 153.364 57.017H157.858V68H156.01V63.884H153.868L150.97 68H148.933ZM153.49 62.519H156.01V58.466H153.7C153.042 58.466 152.517 58.655 152.125 59.033C151.733 59.397 151.537 59.866 151.537 60.44C151.537 61.014 151.698 61.504 152.02 61.91C152.356 62.316 152.846 62.519 153.49 62.519ZM19.273 95.583V91.362H19.504C19.812 91.362 20.092 91.271 20.344 91.089C20.61 90.907 20.841 90.592 21.037 90.144C21.247 89.682 21.415 89.052 21.541 88.254C21.667 87.456 21.751 86.441 21.793 85.209L21.898 82.038H29.353V91.362H30.844V95.583H29.206V93H20.911V95.583H19.273ZM22.087 91.362H27.505V83.676H23.536L23.473 85.377C23.431 86.567 23.347 87.568 23.221 88.38C23.109 89.178 22.955 89.815 22.759 90.291C22.577 90.767 22.353 91.124 22.087 91.362ZM37.6862 93.21C36.8602 93.21 36.1112 93.063 35.4392 92.769C34.7672 92.461 34.1862 92.048 33.6962 91.53C33.2062 90.998 32.8282 90.389 32.5622 89.703C32.2962 89.017 32.1632 88.296 32.1632 87.54C32.1632 86.77 32.2962 86.042 32.5622 85.356C32.8282 84.67 33.2062 84.068 33.6962 83.55C34.1862 83.018 34.7672 82.605 35.4392 82.311C36.1252 82.003 36.8742 81.849 37.6862 81.849C38.5122 81.849 39.2612 82.003 39.9332 82.311C40.6052 82.605 41.1862 83.018 41.6762 83.55C42.1802 84.068 42.5652 84.67 42.8312 85.356C43.0972 86.042 43.2302 86.77 43.2302 87.54C43.2302 88.296 43.0972 89.017 42.8312 89.703C42.5652 90.389 42.1872 90.998 41.6972 91.53C41.2072 92.048 40.6192 92.461 39.9332 92.769C39.2612 93.063 38.5122 93.21 37.6862 93.21ZM34.0532 87.561C34.0532 88.317 34.2142 89.003 34.5362 89.619C34.8722 90.235 35.3132 90.725 35.8592 91.089C36.4052 91.439 37.0142 91.614 37.6862 91.614C38.3582 91.614 38.9672 91.432 39.5132 91.068C40.0732 90.704 40.5142 90.214 40.8362 89.598C41.1722 88.968 41.3402 88.275 41.3402 87.519C41.3402 86.763 41.1722 86.077 40.8362 85.461C40.5142 84.845 40.0732 84.355 39.5132 83.991C38.9672 83.627 38.3582 83.445 37.6862 83.445C37.0142 83.445 36.4052 83.634 35.8592 84.012C35.3132 84.376 34.8722 84.866 34.5362 85.482C34.2142 86.098 34.0532 86.791 34.0532 87.561ZM55.632 93.21C54.806 93.21 54.05 93.063 53.364 92.769C52.692 92.461 52.104 92.041 51.6 91.509C51.11 90.977 50.725 90.368 50.445 89.682C50.179 88.996 50.046 88.268 50.046 87.498C50.046 86.462 50.277 85.517 50.739 84.663C51.201 83.809 51.852 83.13 52.692 82.626C53.532 82.108 54.505 81.849 55.611 81.849C56.689 81.849 57.627 82.094 58.425 82.584C59.237 83.06 59.839 83.704 60.231 84.516L58.425 85.083C58.145 84.565 57.753 84.166 57.249 83.886C56.745 83.592 56.185 83.445 55.569 83.445C54.897 83.445 54.281 83.62 53.721 83.97C53.175 84.32 52.741 84.803 52.419 85.419C52.097 86.021 51.936 86.714 51.936 87.498C51.936 88.268 52.097 88.968 52.419 89.598C52.755 90.214 53.196 90.704 53.742 91.068C54.302 91.432 54.918 91.614 55.59 91.614C56.024 91.614 56.437 91.537 56.829 91.383C57.235 91.229 57.585 91.026 57.879 90.774C58.187 90.508 58.397 90.221 58.509 89.913L60.315 90.459C60.091 90.991 59.748 91.467 59.286 91.887C58.838 92.293 58.299 92.615 57.669 92.853C57.053 93.091 56.374 93.21 55.632 93.21ZM67.1574 93.21C66.3314 93.21 65.5754 93.063 64.8894 92.769C64.2174 92.461 63.6294 92.048 63.1254 91.53C62.6354 90.998 62.2504 90.389 61.9704 89.703C61.7044 89.017 61.5714 88.289 61.5714 87.519C61.5714 86.483 61.8094 85.538 62.2854 84.684C62.7614 83.83 63.4194 83.144 64.2594 82.626C65.1134 82.108 66.0864 81.849 67.1784 81.849C68.2844 81.849 69.2434 82.115 70.0554 82.647C70.8814 83.165 71.5184 83.851 71.9664 84.705C72.4284 85.545 72.6594 86.455 72.6594 87.435C72.6594 87.575 72.6524 87.715 72.6384 87.855C72.6384 87.981 72.6314 88.079 72.6174 88.149H63.5244C63.5804 88.863 63.7764 89.5 64.1124 90.06C64.4624 90.606 64.9104 91.04 65.4564 91.362C66.0024 91.67 66.5904 91.824 67.2204 91.824C67.8924 91.824 68.5224 91.656 69.1104 91.32C69.7124 90.984 70.1254 90.543 70.3494 89.997L71.9454 90.438C71.7074 90.97 71.3504 91.446 70.8744 91.866C70.4124 92.286 69.8594 92.615 69.2154 92.853C68.5854 93.091 67.8994 93.21 67.1574 93.21ZM63.4614 86.868H70.9374C70.8814 86.154 70.6784 85.524 70.3284 84.978C69.9784 84.432 69.5304 84.005 68.9844 83.697C68.4384 83.389 67.8364 83.235 67.1784 83.235C66.5344 83.235 65.9394 83.389 65.3934 83.697C64.8474 84.005 64.3994 84.432 64.0494 84.978C63.7134 85.524 63.5174 86.154 63.4614 86.868ZM80.6147 93.21C79.7187 93.21 78.9207 92.986 78.2207 92.538C77.5207 92.09 76.9677 91.523 76.5617 90.837V97.473H74.7137V82.038H76.3517V84.096C76.7857 83.424 77.3527 82.885 78.0527 82.479C78.7527 82.059 79.5157 81.849 80.3417 81.849C81.0977 81.849 81.7907 82.003 82.4207 82.311C83.0507 82.619 83.5967 83.039 84.0587 83.571C84.5207 84.103 84.8777 84.712 85.1297 85.398C85.3957 86.07 85.5287 86.777 85.5287 87.519C85.5287 88.555 85.3187 89.507 84.8987 90.375C84.4927 91.243 83.9187 91.936 83.1767 92.454C82.4347 92.958 81.5807 93.21 80.6147 93.21ZM80.0477 91.614C80.5937 91.614 81.0837 91.502 81.5177 91.278C81.9657 91.04 82.3437 90.732 82.6517 90.354C82.9737 89.962 83.2187 89.521 83.3867 89.031C83.5547 88.541 83.6387 88.037 83.6387 87.519C83.6387 86.973 83.5407 86.455 83.3447 85.965C83.1627 85.475 82.8967 85.041 82.5467 84.663C82.2107 84.285 81.8117 83.991 81.3497 83.781C80.9017 83.557 80.4117 83.445 79.8797 83.445C79.5437 83.445 79.1937 83.508 78.8297 83.634C78.4797 83.76 78.1437 83.942 77.8217 84.18C77.4997 84.404 77.2267 84.663 77.0027 84.957C76.7787 85.251 76.6317 85.566 76.5617 85.902V89.031C76.7717 89.507 77.0517 89.941 77.4017 90.333C77.7517 90.725 78.1577 91.04 78.6197 91.278C79.0817 91.502 79.5577 91.614 80.0477 91.614ZM92.6486 93.21C91.8226 93.21 91.0666 93.063 90.3806 92.769C89.7086 92.461 89.1206 92.048 88.6166 91.53C88.1266 90.998 87.7416 90.389 87.4616 89.703C87.1956 89.017 87.0626 88.289 87.0626 87.519C87.0626 86.483 87.3006 85.538 87.7766 84.684C88.2526 83.83 88.9106 83.144 89.7506 82.626C90.6046 82.108 91.5776 81.849 92.6696 81.849C93.7756 81.849 94.7346 82.115 95.5466 82.647C96.3726 83.165 97.0096 83.851 97.4576 84.705C97.9196 85.545 98.1506 86.455 98.1506 87.435C98.1506 87.575 98.1436 87.715 98.1296 87.855C98.1296 87.981 98.1226 88.079 98.1086 88.149H89.0156C89.0716 88.863 89.2676 89.5 89.6036 90.06C89.9536 90.606 90.4016 91.04 90.9476 91.362C91.4936 91.67 92.0816 91.824 92.7116 91.824C93.3836 91.824 94.0136 91.656 94.6016 91.32C95.2036 90.984 95.6166 90.543 95.8406 89.997L97.4366 90.438C97.1986 90.97 96.8416 91.446 96.3656 91.866C95.9036 92.286 95.3506 92.615 94.7066 92.853C94.0766 93.091 93.3906 93.21 92.6486 93.21ZM88.9526 86.868H96.4286C96.3726 86.154 96.1696 85.524 95.8196 84.978C95.4696 84.432 95.0216 84.005 94.4756 83.697C93.9296 83.389 93.3276 83.235 92.6696 83.235C92.0256 83.235 91.4306 83.389 90.8846 83.697C90.3386 84.005 89.8906 84.432 89.5406 84.978C89.2046 85.524 89.0086 86.154 88.9526 86.868ZM98.9869 95.583V91.362H99.2179C99.5259 91.362 99.8059 91.271 100.058 91.089C100.324 90.907 100.555 90.592 100.751 90.144C100.961 89.682 101.129 89.052 101.255 88.254C101.381 87.456 101.465 86.441 101.507 85.209L101.612 82.038H109.067V91.362H110.558V95.583H108.92V93H100.625V95.583H98.9869ZM101.801 91.362H107.219V83.676H103.25L103.187 85.377C103.145 86.567 103.061 87.568 102.935 88.38C102.823 89.178 102.669 89.815 102.473 90.291C102.291 90.767 102.067 91.124 101.801 91.362ZM112.591 93V82.059H114.439V90.522L120.571 82.038H122.251V93H120.403V84.705L114.355 93H112.591ZM125.183 93V82.038H127.031V86.574H132.743V82.038H134.591V93H132.743V88.212H127.031V93H125.183ZM137.549 93V82.038H139.397V85.776H141.623C142.911 85.776 143.884 86.105 144.542 86.763C145.214 87.407 145.55 88.254 145.55 89.304C145.55 90.004 145.403 90.634 145.109 91.194C144.829 91.754 144.409 92.195 143.849 92.517C143.289 92.839 142.589 93 141.749 93H137.549ZM139.397 91.551H141.497C142.015 91.551 142.428 91.453 142.736 91.257C143.058 91.047 143.296 90.774 143.45 90.438C143.604 90.102 143.681 89.738 143.681 89.346C143.681 88.968 143.611 88.618 143.471 88.296C143.331 87.974 143.1 87.715 142.778 87.519C142.456 87.323 142.015 87.225 141.455 87.225H139.397V91.551ZM147.44 93V82.059H149.288V93H147.44ZM20.47 118V107.038H22.318V111.574H28.03V107.038H29.878V118H28.03V113.212H22.318V118H20.47ZM37.6452 118.21C36.8192 118.21 36.0702 118.063 35.3982 117.769C34.7262 117.461 34.1452 117.048 33.6552 116.53C33.1652 115.998 32.7872 115.389 32.5212 114.703C32.2552 114.017 32.1222 113.296 32.1222 112.54C32.1222 111.77 32.2552 111.042 32.5212 110.356C32.7872 109.67 33.1652 109.068 33.6552 108.55C34.1452 108.018 34.7262 107.605 35.3982 107.311C36.0842 107.003 36.8332 106.849 37.6452 106.849C38.4712 106.849 39.2202 107.003 39.8922 107.311C40.5642 107.605 41.1452 108.018 41.6352 108.55C42.1392 109.068 42.5242 109.67 42.7902 110.356C43.0562 111.042 43.1892 111.77 43.1892 112.54C43.1892 113.296 43.0562 114.017 42.7902 114.703C42.5242 115.389 42.1462 115.998 41.6562 116.53C41.1662 117.048 40.5782 117.461 39.8922 117.769C39.2202 118.063 38.4712 118.21 37.6452 118.21ZM34.0122 112.561C34.0122 113.317 34.1732 114.003 34.4952 114.619C34.8312 115.235 35.2722 115.725 35.8182 116.089C36.3642 116.439 36.9732 116.614 37.6452 116.614C38.3172 116.614 38.9262 116.432 39.4722 116.068C40.0322 115.704 40.4732 115.214 40.7952 114.598C41.1312 113.968 41.2992 113.275 41.2992 112.519C41.2992 111.763 41.1312 111.077 40.7952 110.461C40.4732 109.845 40.0322 109.355 39.4722 108.991C38.9262 108.627 38.3172 108.445 37.6452 108.445C36.9732 108.445 36.3642 108.634 35.8182 109.012C35.2722 109.376 34.8312 109.866 34.4952 110.482C34.1732 111.098 34.0122 111.791 34.0122 112.561ZM44.6095 118L47.7175 113.59C47.0035 113.45 46.4295 113.114 45.9955 112.582C45.5615 112.036 45.3445 111.308 45.3445 110.398C45.3445 109.74 45.4985 109.159 45.8065 108.655C46.1145 108.151 46.5415 107.752 47.0875 107.458C47.6475 107.164 48.2985 107.017 49.0405 107.017H53.5345V118H51.6865V113.884H49.5445L46.6465 118H44.6095ZM49.1665 112.519H51.6865V108.466H49.3765C48.7185 108.466 48.1935 108.655 47.8015 109.033C47.4095 109.397 47.2135 109.866 47.2135 110.44C47.2135 111.014 47.3745 111.504 47.6965 111.91C48.0325 112.316 48.5225 112.519 49.1665 112.519ZM61.6892 118.21C59.8832 118.21 58.5182 117.664 57.5942 116.572C56.6702 115.48 56.2082 113.94 56.2082 111.952C56.2082 110.594 56.3202 109.453 56.5442 108.529C56.7682 107.591 57.1042 106.821 57.5522 106.219C58.0002 105.603 58.5532 105.106 59.2112 104.728C59.8692 104.336 60.6252 104.014 61.4792 103.762L66.1202 102.355L66.2252 103.951L61.7102 105.316C60.9402 105.568 60.2962 105.89 59.7782 106.282C59.2602 106.674 58.8542 107.178 58.5602 107.794C58.2662 108.41 58.0702 109.201 57.9722 110.167C58.3362 109.425 58.8822 108.851 59.6102 108.445C60.3382 108.025 61.1852 107.815 62.1512 107.815C63.1872 107.815 64.0762 108.032 64.8182 108.466C65.5742 108.886 66.1482 109.481 66.5402 110.251C66.9462 111.007 67.1492 111.882 67.1492 112.876C67.1492 113.94 66.9392 114.871 66.5192 115.669C66.0992 116.467 65.4832 117.09 64.6712 117.538C63.8592 117.986 62.8652 118.21 61.6892 118.21ZM61.6892 116.614C62.8232 116.614 63.6982 116.285 64.3142 115.627C64.9442 114.955 65.2592 114.066 65.2592 112.96C65.2592 111.882 64.9512 111.007 64.3352 110.335C63.7192 109.663 62.8372 109.327 61.6892 109.327C61.0172 109.327 60.4082 109.467 59.8622 109.747C59.3302 110.027 58.9032 110.44 58.5812 110.986C58.2732 111.518 58.1192 112.176 58.1192 112.96C58.1192 113.66 58.2522 114.29 58.5182 114.85C58.7982 115.396 59.2042 115.83 59.7362 116.152C60.2682 116.46 60.9192 116.614 61.6892 116.614ZM75.3031 118.21C74.4071 118.21 73.6091 117.986 72.9091 117.538C72.2091 117.09 71.6561 116.523 71.2501 115.837V122.473H69.4021V107.038H71.0401V109.096C71.4741 108.424 72.0411 107.885 72.7411 107.479C73.4411 107.059 74.2041 106.849 75.0301 106.849C75.7861 106.849 76.4791 107.003 77.1091 107.311C77.7391 107.619 78.2851 108.039 78.7471 108.571C79.2091 109.103 79.5661 109.712 79.8181 110.398C80.0841 111.07 80.2171 111.777 80.2171 112.519C80.2171 113.555 80.0071 114.507 79.5871 115.375C79.1811 116.243 78.6071 116.936 77.8651 117.454C77.1231 117.958 76.2691 118.21 75.3031 118.21ZM74.7361 116.614C75.2821 116.614 75.7721 116.502 76.2061 116.278C76.6541 116.04 77.0321 115.732 77.3401 115.354C77.6621 114.962 77.9071 114.521 78.0751 114.031C78.2431 113.541 78.3271 113.037 78.3271 112.519C78.3271 111.973 78.2291 111.455 78.0331 110.965C77.8511 110.475 77.5851 110.041 77.2351 109.663C76.8991 109.285 76.5001 108.991 76.0381 108.781C75.5901 108.557 75.1001 108.445 74.5681 108.445C74.2321 108.445 73.8821 108.508 73.5181 108.634C73.1681 108.76 72.8321 108.942 72.5101 109.18C72.1881 109.404 71.9151 109.663 71.6911 109.957C71.4671 110.251 71.3201 110.566 71.2501 110.902V114.031C71.4601 114.507 71.7401 114.941 72.0901 115.333C72.4401 115.725 72.8461 116.04 73.3081 116.278C73.7701 116.502 74.2461 116.614 74.7361 116.614ZM81.6671 118L84.7751 113.59C84.0611 113.45 83.4871 113.114 83.0531 112.582C82.6191 112.036 82.4021 111.308 82.4021 110.398C82.4021 109.74 82.5561 109.159 82.8641 108.655C83.1721 108.151 83.5991 107.752 84.1451 107.458C84.7051 107.164 85.3561 107.017 86.0981 107.017H90.5921V118H88.7441V113.884H86.6021L83.7041 118H81.6671ZM86.2241 112.519H88.7441V108.466H86.4341C85.7761 108.466 85.2511 108.655 84.8591 109.033C84.4671 109.397 84.2711 109.866 84.2711 110.44C84.2711 111.014 84.4321 111.504 84.7541 111.91C85.0901 112.316 85.5801 112.519 86.2241 112.519Z" fill="#3E245B"/>
<path d="M179.72 121.8H199.24V175H188.04V131.8H179.72V121.8Z" fill="#3E245B"/>
</svg>
