<svg width="320" height="192" viewBox="0 0 320 192" fill="none" xmlns="http://www.w3.org/2000/svg">
<path d="M97.4449 0H153.626L147.206 12.8571L135.167 36.1607L125.536 53.8393L113.497 77.1429L105.471 92.4107L91.0242 119.732L82.9983 135H30.0273L37.2507 119.732L66.1439 61.875L72.5646 49.0179L88.6165 17.6786L97.4449 0Z" fill="url(#paint0_linear_203_25)"/>
<path d="M159.218 0H215.4L208.979 12.8571L196.94 36.1607L187.309 53.8393L175.27 77.1429L167.244 92.4107L152.798 119.732L144.772 135H91.8008L99.0241 119.732L127.917 61.875L134.338 49.0179L150.39 17.6786L159.218 0Z" fill="url(#paint1_linear_203_25)"/>
<path d="M217.61 0H161.428L167.849 12.8571L179.888 36.1607L189.519 53.8393L201.558 77.1429L209.584 92.4107L224.03 119.732L232.056 135H285.027L277.804 119.732L248.911 61.875L242.49 49.0179L226.438 17.6786L217.61 0Z" fill="url(#paint2_linear_203_25)"/>
<path d="M21.0481 188V146.82H27.5441V188H21.0481ZM50.3068 158.884V188H43.8108V146.82H49.1468L72.4628 176.574V146.878H79.0168V188H73.3328L50.3068 158.884ZM107.124 146.82H113.272L129.28 188H122.436L118.086 176.806H102.194L97.9017 188H90.9997L107.124 146.82ZM116.81 171.992L110.198 153.954L103.354 171.992H116.81ZM137.136 167.12C137.136 164.607 137.581 162.151 138.47 159.754C139.36 157.318 140.655 155.114 142.356 153.142C144.096 151.131 146.204 149.546 148.678 148.386C151.153 147.187 153.956 146.588 157.088 146.588C160.8 146.588 164.01 147.439 166.716 149.14C169.423 150.803 171.434 152.949 172.748 155.578L167.644 159C166.871 157.337 165.885 156.023 164.686 155.056C163.526 154.089 162.25 153.413 160.858 153.026C159.505 152.639 158.171 152.446 156.856 152.446C154.691 152.446 152.796 152.891 151.172 153.78C149.548 154.631 148.176 155.771 147.054 157.202C145.972 158.633 145.14 160.237 144.56 162.016C144.019 163.795 143.748 165.573 143.748 167.352C143.748 169.324 144.077 171.238 144.734 173.094C145.392 174.911 146.3 176.535 147.46 177.966C148.659 179.358 150.07 180.46 151.694 181.272C153.318 182.084 155.097 182.49 157.03 182.49C158.345 182.49 159.718 182.258 161.148 181.794C162.579 181.33 163.894 180.615 165.092 179.648C166.33 178.643 167.296 177.328 167.992 175.704L173.386 178.778C172.536 180.827 171.202 182.567 169.384 183.998C167.606 185.429 165.595 186.511 163.352 187.246C161.148 187.981 158.964 188.348 156.798 188.348C153.898 188.348 151.25 187.749 148.852 186.55C146.455 185.313 144.386 183.689 142.646 181.678C140.906 179.629 139.553 177.347 138.586 174.834C137.62 172.282 137.136 169.711 137.136 167.12ZM183.235 167.12C183.235 164.607 183.68 162.151 184.569 159.754C185.458 157.318 186.754 155.114 188.455 153.142C190.195 151.131 192.302 149.546 194.777 148.386C197.252 147.187 200.055 146.588 203.187 146.588C206.899 146.588 210.108 147.439 212.815 149.14C215.522 150.803 217.532 152.949 218.847 155.578L213.743 159C212.97 157.337 211.984 156.023 210.785 155.056C209.625 154.089 208.349 153.413 206.957 153.026C205.604 152.639 204.27 152.446 202.955 152.446C200.79 152.446 198.895 152.891 197.271 153.78C195.647 154.631 194.274 155.771 193.153 157.202C192.07 158.633 191.239 160.237 190.659 162.016C190.118 163.795 189.847 165.573 189.847 167.352C189.847 169.324 190.176 171.238 190.833 173.094C191.49 174.911 192.399 176.535 193.559 177.966C194.758 179.358 196.169 180.46 197.793 181.272C199.417 182.084 201.196 182.49 203.129 182.49C204.444 182.49 205.816 182.258 207.247 181.794C208.678 181.33 209.992 180.615 211.191 179.648C212.428 178.643 213.395 177.328 214.091 175.704L219.485 178.778C218.634 180.827 217.3 182.567 215.483 183.998C213.704 185.429 211.694 186.511 209.451 187.246C207.247 187.981 205.062 188.348 202.897 188.348C199.997 188.348 197.348 187.749 194.951 186.55C192.554 185.313 190.485 183.689 188.745 181.678C187.005 179.629 185.652 177.347 184.685 174.834C183.718 172.282 183.235 169.711 183.235 167.12ZM260.7 182.258V188H232.454V146.82H260.178V152.562H238.95V164.278H257.336V169.672H238.95V182.258H260.7ZM274.361 188V146.82H280.857V182.258H302.955V188H274.361Z" fill="#3E245B"/>
<defs>
<linearGradient id="paint0_linear_203_25" x1="153.516" y1="-4.3795e-06" x2="29.8361" y2="134.831" gradientUnits="userSpaceOnUse">
<stop stop-color="#FFE66C"/>
<stop offset="1" stop-color="#FFCD01"/>
</linearGradient>
<linearGradient id="paint1_linear_203_25" x1="215.289" y1="-4.3795e-06" x2="91.6095" y2="134.831" gradientUnits="userSpaceOnUse">
<stop stop-color="#42245B"/>
<stop offset="1" stop-color="#8235BD"/>
</linearGradient>
<linearGradient id="paint2_linear_203_25" x1="161.539" y1="-4.3795e-06" x2="285.219" y2="134.831" gradientUnits="userSpaceOnUse">
<stop stop-color="#8235BD"/>
<stop offset="1" stop-color="#42245B"/>
</linearGradient>
</defs>
</svg>
