<svg width="173" height="40" viewBox="0 0 173 40" fill="none" xmlns="http://www.w3.org/2000/svg">
<path fill-rule="evenodd" clip-rule="evenodd" d="M152.675 39.4012C156.695 39.4018 160.625 38.2464 163.968 36.0814C167.31 33.9164 169.915 30.839 171.454 27.2385C172.992 23.6379 173.394 19.676 172.609 15.8539C171.824 12.0318 169.887 8.52128 167.044 5.76637C164.2 3.01146 160.578 1.13595 156.635 0.377106C152.692 -0.381743 148.605 0.0101616 144.892 1.50324C141.178 2.99632 138.005 5.52349 135.774 8.76507C133.542 12.0066 132.353 15.817 132.355 19.7141C132.359 24.9362 134.501 29.9433 138.312 33.6348C142.122 37.3264 147.288 39.4005 152.675 39.4012ZM152.892 16.5941C153.387 16.5941 153.87 16.4519 154.281 16.1854C154.693 15.919 155.013 15.5403 155.203 15.0972C155.392 14.6541 155.442 14.1666 155.345 13.6962C155.249 13.2258 155.01 12.7937 154.661 12.4546C154.311 12.1155 153.865 11.8845 153.38 11.791C152.895 11.6974 152.392 11.7454 151.935 11.929C151.477 12.1125 151.087 12.4233 150.812 12.8221C150.537 13.2208 150.39 13.6897 150.39 14.1693C150.39 14.8124 150.654 15.4291 151.123 15.8839C151.592 16.3386 152.228 16.5941 152.892 16.5941ZM148.314 21.1959H150.571V27.9101H155.218V21.1959H156.455C156.676 22.3889 157.16 23.5215 157.875 24.516C158.59 25.5105 159.518 26.3434 160.596 26.9576C161.674 27.5718 162.876 27.9527 164.12 28.0744C165.364 28.196 166.62 28.0554 167.803 27.6622L168.714 22.3653C167.902 23.0027 166.886 23.3465 165.841 23.3379C163.514 23.3379 161.624 21.7213 161.624 19.7087C161.624 17.6961 163.514 16.0768 165.841 16.0768C166.897 16.0675 167.924 16.4195 168.739 17.071L167.803 11.7525C166.717 11.3926 165.567 11.245 164.422 11.3184C163.277 11.3918 162.158 11.6846 161.13 12.18C160.102 12.6753 159.185 13.3634 158.433 14.2043C157.682 15.0452 157.109 16.0223 156.749 17.0791H149.04L148.106 11.7633C146.799 11.3258 145.404 11.1973 144.035 11.3887C142.667 11.58 141.366 12.0856 140.24 12.8633C139.114 13.641 138.197 14.6682 137.563 15.8594C136.93 17.0506 136.6 18.3713 136.6 19.7114C136.6 21.0515 136.93 22.3721 137.563 23.5634C138.197 24.7546 139.114 25.7818 140.24 26.5595C141.366 27.3372 142.667 27.8427 144.035 28.0341C145.404 28.2254 146.799 28.097 148.106 27.6595L149.017 22.3653C148.205 23.0031 147.189 23.3469 146.144 23.3379C143.815 23.3379 141.927 21.7213 141.927 19.706C141.927 17.6907 143.815 16.0741 146.144 16.0741C147.199 16.0661 148.224 16.418 149.04 17.0683L148.987 17.3808L148.37 20.8834L148.314 21.1959Z" fill="#FBD652"/>
<path fill-rule="evenodd" clip-rule="evenodd" d="M105.926 8.71185L101.688 30.8696C102.61 31.1051 103.561 31.2166 104.514 31.201C105.506 31.201 105.868 31.1525 107.471 30.8696L110.709 13.9495H118.035L114.803 30.867C115.725 31.1035 116.676 31.2159 117.63 31.201C118.619 31.201 118.983 31.1499 120.584 30.867L124.8 8.83579C124.808 8.78571 124.805 8.73454 124.791 8.68581C124.776 8.63708 124.751 8.59194 124.717 8.55351C124.683 8.51509 124.641 8.4843 124.593 8.46326C124.546 8.44222 124.494 8.43143 124.442 8.43164H105.982H106.279C106.198 8.43146 106.119 8.45802 106.055 8.50697C105.992 8.55592 105.947 8.62435 105.929 8.70107" fill="#FBD652"/>
<path fill-rule="evenodd" clip-rule="evenodd" d="M58.8495 8.37769H46.7929C46.711 8.37725 46.6313 8.40361 46.5667 8.4525C46.5022 8.50139 46.4565 8.56996 46.4371 8.64712L42.207 30.8157C43.1303 31.0501 44.0821 31.1616 45.0364 31.1471C46.023 31.1471 46.3871 31.0986 47.9908 30.8157L51.2398 13.8956H58.2492L59.2108 8.77645C59.2179 8.72753 59.2142 8.67772 59.2002 8.63025C59.1861 8.58278 59.1619 8.5387 59.1292 8.50087C59.0964 8.46303 59.0558 8.43228 59.0101 8.41059C58.9643 8.38891 58.9143 8.37679 58.8634 8.375" fill="#FBD652"/>
<path fill-rule="evenodd" clip-rule="evenodd" d="M30.0259 8.39925H24.9759C24.8943 8.39894 24.815 8.4254 24.7509 8.47432C24.6869 8.52324 24.6417 8.59174 24.6229 8.66868L23.0582 16.8512L22.5412 19.6048L20.3789 30.8265C21.3012 31.0608 22.2521 31.1723 23.2055 31.1579C24.1949 31.1579 24.5562 31.1094 26.1626 30.8265L27.7774 22.3664H35.1092L33.4917 30.8238C34.4137 31.06 35.3647 31.1725 36.3182 31.1579C37.3077 31.1579 37.6718 31.1094 39.2754 30.8238L40.893 22.3664L41.4127 19.6048L43.4833 8.77645C43.4879 8.72768 43.482 8.67852 43.466 8.63208C43.45 8.58564 43.4241 8.54294 43.3901 8.5067C43.3562 8.47046 43.3148 8.44147 43.2686 8.42159C43.2224 8.4017 43.1725 8.39134 43.122 8.39117H38.0859C38.0044 8.39134 37.9254 8.41797 37.8614 8.46682C37.7974 8.51566 37.7522 8.58389 37.7329 8.6606L36.1682 16.8431H28.8419L30.3844 8.76029C30.3899 8.71158 30.3847 8.6623 30.3692 8.61567C30.3536 8.56905 30.3281 8.52614 30.2942 8.48976C30.2604 8.45337 30.219 8.42434 30.1727 8.40457C30.1265 8.38479 30.0764 8.37472 30.0259 8.37501" fill="#FBD652"/>
<path fill-rule="evenodd" clip-rule="evenodd" d="M81.5352 39.6648C82.59 39.9024 83.6708 40.0146 84.7536 39.9989C85.8742 39.999 86.9919 39.8871 88.0888 39.6648L103.075 8.82332C103.094 8.77911 103.101 8.73111 103.096 8.68357C103.091 8.63602 103.074 8.59038 103.046 8.5507C103.019 8.51102 102.982 8.47851 102.938 8.45604C102.895 8.43357 102.846 8.42184 102.797 8.42188H96.8686C96.8239 8.42576 96.7806 8.43941 96.7421 8.46181C96.7036 8.48421 96.6708 8.51477 96.6463 8.5512L89.8731 22.513L87.9804 8.66706C87.9686 8.59948 87.9326 8.5381 87.8787 8.49374C87.8248 8.44938 87.7565 8.42488 87.6858 8.42457H81.8492C81.8077 8.4244 81.7666 8.43264 81.7286 8.44879C81.6906 8.46493 81.6565 8.48861 81.6285 8.5183C81.6005 8.54799 81.5792 8.58304 81.566 8.62119C81.5528 8.65934 81.548 8.69974 81.5518 8.7398L84.723 33.0665L81.5352 39.6648Z" fill="#FBD652"/>
<path fill-rule="evenodd" clip-rule="evenodd" d="M8.26513 8.20531H3.04003H3.01779H2.99278H2.95109V8.26998C2.02465 13.1035 1.09822 17.9371 0.171779 22.7706C-1.62088 34.6066 11.1862 30.9289 12.1562 29.5198C12.8204 31.5459 15.6136 31.0447 17.6036 30.417L21.8226 8.36697V8.33194C21.8226 8.28607 21.8132 8.24066 21.795 8.19831C21.7768 8.15597 21.7502 8.11753 21.7166 8.08522C21.683 8.05291 21.6432 8.02737 21.5993 8.01006C21.5555 7.99276 21.5086 7.98403 21.4613 7.98439H16.3251C16.2436 7.98408 16.1643 8.01053 16.1002 8.05945C16.0361 8.10837 15.991 8.17687 15.9722 8.25381L12.8399 24.6324C12.4758 24.8775 4.93274 28.1646 6.12784 21.7576L8.70982 8.20531L8.69592 8.27267L8.64311 8.5421V8.59598C8.64976 8.54648 8.64558 8.49617 8.63084 8.44834C8.61611 8.4005 8.59115 8.35622 8.55759 8.31835C8.52404 8.28048 8.48263 8.24989 8.43608 8.22855C8.38952 8.20722 8.33884 8.19563 8.28736 8.19454" fill="#FBD652"/>
<path fill-rule="evenodd" clip-rule="evenodd" d="M56.0547 39.6548C56.9771 39.8882 57.928 39.9987 58.8812 39.9835C59.8707 39.9835 60.2348 39.935 61.8384 39.6548L63.5533 30.6371C67.561 31.8414 72.939 31.572 75.8684 28.0694C77.3303 26.3235 77.9223 23.8421 78.8394 19.1406C80.785 9.22021 75.2931 6.17568 67.6222 9.07473C67.5499 7.37194 63.5727 8.42271 61.9941 8.4254L61.2631 12.2809L56.0547 39.6548ZM64.5733 25.2916L66.7078 14.0592C73.6088 12.2351 73.82 15.0938 73.0029 19.5178C72.6944 21.1694 72.4165 23.1982 70.9935 24.8605C69.7622 26.2993 66.3159 26.1161 64.5705 25.3051" fill="#FBD652"/>
</svg>
